<svg width="14" height="21" viewBox="0 0 14 21" fill="none" xmlns="http://www.w3.org/2000/svg">
<path fill-rule="evenodd" clip-rule="evenodd" d="M3.53162 1.62403C5.71648 0.35453 8.40203 0.376719 10.5664 1.68215C12.7095 3.01417 14.012 5.39143 13.9998 7.9487C13.95 10.4892 12.5533 12.8773 10.8075 14.7233C9.79983 15.7937 8.67261 16.7401 7.44884 17.5433C7.32281 17.6162 7.18475 17.665 7.04148 17.6873C6.9036 17.6814 6.76932 17.6406 6.65075 17.5687C4.78243 16.3618 3.14334 14.8213 1.81233 13.0212C0.698589 11.5186 0.0658357 9.70326 1.16173e-06 7.82167C-0.00144468 5.2595 1.34677 2.89352 3.53162 1.62403ZM4.79427 8.88203C5.1618 9.78809 6.02929 10.3791 6.99171 10.3791C7.62221 10.3836 8.2283 10.1311 8.67492 9.67773C9.12154 9.22438 9.37159 8.60789 9.36936 7.96563C9.37272 6.98529 8.79557 6.09956 7.90737 5.72202C7.01918 5.34449 5.99515 5.5496 5.31343 6.2416C4.6317 6.9336 4.42675 7.97598 4.79427 8.88203Z" fill="#0B7077"/>
<ellipse opacity="0.4" cx="7" cy="19.6873" rx="5" ry="1" fill="#0B7077"/>
</svg>
