<svg width="149" height="148" viewBox="0 0 149 148" fill="none" xmlns="http://www.w3.org/2000/svg">
<g filter="url(#filter0_d_1_646)">
<circle cx="74.2998" cy="59" r="30" fill="#FBFBFB"/>
</g>
<g clip-path="url(#clip0_1_646)">
<path d="M63.7998 57.375C65.4545 57.375 66.7998 55.9176 66.7998 54.125C66.7998 52.3324 65.4545 50.875 63.7998 50.875C62.1451 50.875 60.7998 52.3324 60.7998 54.125C60.7998 55.9176 62.1451 57.375 63.7998 57.375ZM84.7998 57.375C86.4545 57.375 87.7998 55.9176 87.7998 54.125C87.7998 52.3324 86.4545 50.875 84.7998 50.875C83.1451 50.875 81.7998 52.3324 81.7998 54.125C81.7998 55.9176 83.1451 57.375 84.7998 57.375ZM86.2998 59H83.2998C82.4748 59 81.7295 59.3605 81.1857 59.9445C83.0748 61.0668 84.4154 63.093 84.7061 65.5H87.7998C88.6295 65.5 89.2998 64.7738 89.2998 63.875V62.25C89.2998 60.4574 87.9545 59 86.2998 59ZM74.2998 59C77.2014 59 79.5498 56.4559 79.5498 53.3125C79.5498 50.1691 77.2014 47.625 74.2998 47.625C71.3982 47.625 69.0498 50.1691 69.0498 53.3125C69.0498 56.4559 71.3982 59 74.2998 59ZM77.8998 60.625H77.5107C76.5357 61.1328 75.4529 61.4375 74.2998 61.4375C73.1467 61.4375 72.0686 61.1328 71.0889 60.625H70.6998C67.7186 60.625 65.2998 63.2453 65.2998 66.475V67.9375C65.2998 69.2832 66.3076 70.375 67.5498 70.375H81.0498C82.292 70.375 83.2998 69.2832 83.2998 67.9375V66.475C83.2998 63.2453 80.8811 60.625 77.8998 60.625ZM67.4139 59.9445C66.8701 59.3605 66.1248 59 65.2998 59H62.2998C60.6451 59 59.2998 60.4574 59.2998 62.25V63.875C59.2998 64.7738 59.9701 65.5 60.7998 65.5H63.8889C64.1842 63.093 65.5248 61.0668 67.4139 59.9445Z" fill="#0B7077"/>
</g>
<defs>
<filter id="filter0_d_1_646" x="0.299805" y="0" width="148" height="148" filterUnits="userSpaceOnUse" color-interpolation-filters="sRGB">
<feFlood flood-opacity="0" result="BackgroundImageFix"/>
<feColorMatrix in="SourceAlpha" type="matrix" values="0 0 0 0 0 0 0 0 0 0 0 0 0 0 0 0 0 0 127 0" result="hardAlpha"/>
<feOffset dy="15"/>
<feGaussianBlur stdDeviation="22"/>
<feColorMatrix type="matrix" values="0 0 0 0 0.0509804 0 0 0 0 0.0588235 0 0 0 0 0.109804 0 0 0 0.12 0"/>
<feBlend mode="normal" in2="BackgroundImageFix" result="effect1_dropShadow_1_646"/>
<feBlend mode="normal" in="SourceGraphic" in2="effect1_dropShadow_1_646" result="shape"/>
</filter>
<clipPath id="clip0_1_646">
<rect width="30" height="26" fill="white" transform="translate(59.2998 46)"/>
</clipPath>
</defs>
</svg>
