<svg width="22" height="22" viewBox="0 0 22 22" fill="none" xmlns="http://www.w3.org/2000/svg">
<path d="M10.7468 2.718L13.2403 7.76958C13.2719 7.83371 13.3331 7.87819 13.4039 7.88853L18.9803 8.70361L14.9454 12.6336C14.8941 12.6835 14.8707 12.7556 14.8828 12.8262L15.835 18.3779L10.848 15.7553C10.7846 15.722 10.7089 15.722 10.6455 15.7553L5.65853 18.3779L6.61072 12.8262C6.62282 12.7556 6.5994 12.6835 6.5481 12.6336L2.51322 8.70361L8.08965 7.88853C8.16042 7.87819 8.22158 7.83371 8.25324 7.76958L10.7468 2.718Z" stroke="#161618" stroke-width="0.435043" stroke-linecap="round" stroke-linejoin="round"/>
<path d="M10.7468 15.9478L10.7468 2.22656L8.05819 7.6733L2.0459 8.55208L6.39632 12.7894L5.36962 18.7756L10.7468 15.9478Z" fill="#161618"/>
</svg>
