<svg width="24" height="25" viewBox="0 0 24 25" fill="none" xmlns="http://www.w3.org/2000/svg">
<path opacity="0.4" d="M22 16.6273C22 19.4173 19.76 21.6773 16.97 21.6873H16.96H7.05C4.27 21.6873 2 19.4373 2 16.6473V16.6373C2 16.6373 2.006 12.2113 2.014 9.98526C2.015 9.56726 2.495 9.33326 2.822 9.59326C5.198 11.4783 9.447 14.9153 9.5 14.9603C10.21 15.5293 11.11 15.8503 12.03 15.8503C12.95 15.8503 13.85 15.5293 14.56 14.9493C14.613 14.9143 18.767 11.5803 21.179 9.66426C21.507 9.40326 21.989 9.63726 21.99 10.0543C22 12.2633 22 16.6273 22 16.6273Z" fill="#0B7077"/>
<path d="M21.4759 6.36077C20.6099 4.72877 18.9059 3.68677 17.0299 3.68677H7.04988C5.17388 3.68677 3.46988 4.72877 2.60388 6.36077C2.40988 6.72577 2.50188 7.18077 2.82488 7.43877L10.2499 13.3778C10.7699 13.7978 11.3999 14.0068 12.0299 14.0068C12.0339 14.0068 12.0369 14.0068 12.0399 14.0068C12.0429 14.0068 12.0469 14.0068 12.0499 14.0068C12.6799 14.0068 13.3099 13.7978 13.8299 13.3778L21.2549 7.43877C21.5779 7.18077 21.6699 6.72577 21.4759 6.36077Z" fill="#0B7077"/>
</svg>
