<svg width="226" height="41" viewBox="0 0 226 41" fill="none" xmlns="http://www.w3.org/2000/svg">
<rect x="0.5" width="225.001" height="40.9759" rx="20.4879" fill="#FAFAFA"/>
<g clip-path="url(#clip0_1_454)">
<rect x="89.3105" y="5.0885" width="29.1892" height="29.1892" rx="14.5946" transform="rotate(-0.173721 89.3105 5.0885)" fill="#FFE75C"/>
<path d="M111.805 34.6926C111.91 35.114 111.918 35.5541 111.828 35.979C111.738 36.4042 111.552 36.8031 111.285 37.146C111.018 37.4886 110.677 37.7664 110.287 37.9577C109.897 38.149 109.469 38.2491 109.034 38.2504L103.098 38.2684L100.321 39.8336L100.321 39.7506C99.0545 39.7544 98.3269 39.3415 98.8733 34.6903C98.6202 33.3834 97.4422 28.2392 96.7871 24.4012C96.1953 20.8951 97.4991 19.6042 101.105 17.5591C102.627 12.988 106.613 13.2457 107.389 15.9833C108.165 18.7208 110.733 30.3577 111.805 34.6926Z" fill="#66BCFF"/>
<path d="M111.805 34.6925C111.258 32.4524 110.291 28.304 109.387 24.4252L104.736 24.0864L101.153 26.6296L99.0859 29.4173L98.0317 30.8527C98.4107 32.6367 98.7263 34.0887 98.8527 34.711C98.3064 39.3622 99.0341 39.7751 100.3 39.7713L103.97 38.2034L112.478 37.5757C112.268 36.6422 112.036 35.6674 111.805 34.6925Z" fill="#EB459F"/>
<path d="M102.285 32.3847C102.542 30.8355 102.402 29.5216 101.973 29.4502C101.543 29.3789 100.986 30.577 100.729 32.1265C100.472 33.6757 100.612 34.9894 101.041 35.0607C101.471 35.1321 102.028 33.934 102.285 32.3847Z" fill="black"/>
<path d="M99.5604 28.5441C99.7668 28.1698 99.9942 27.7955 100.222 27.4627C102.557 24.0723 104.754 23.1523 106.871 23.1459L109.507 23.1379C109.547 23.1388 109.585 23.1491 109.62 23.1677C109.654 23.1862 109.684 23.2129 109.706 23.2452C109.729 23.2775 109.743 23.3147 109.749 23.3537C109.754 23.3927 109.75 23.4323 109.737 23.4693L109.387 24.4252C105.339 24.4375 103.907 24.3173 100.555 27.8561L99.0858 29.4173L99.5604 28.5441Z" fill="#D11583"/>
<path d="M100.555 27.9807C99.165 28.234 98.0671 28.9638 97.4483 30.2526C97.2726 30.6102 97.0182 30.9231 96.7039 31.1682L92.9759 33.8986C92.5569 34.198 92.2656 34.6437 92.1594 35.1476C92.0534 35.6514 92.1403 36.1767 92.403 36.6195C92.5862 36.9303 92.8479 37.1873 93.1616 37.3649C93.4756 37.5424 93.8306 37.6344 94.1911 37.6312L95.7479 37.6265C98.9804 35.8108 100.471 34.5816 101.237 33.8736C102.003 33.1655 102.85 31.8968 102.7 30.4443C102.551 28.9917 102.132 27.6853 100.555 27.9807Z" fill="white"/>
<path d="M101.685 17.2461C101.184 16.4173 100.517 15.3192 100.266 14.8011C100.015 14.2829 99.4137 14.4093 100.272 16.7314C98.1937 15.949 97.7587 16.2409 97.6558 16.5318C97.5529 16.8227 98.01 16.9666 98.8832 17.4621C99.7565 17.9576 100.692 18.5568 100.692 18.5568L101.685 17.2461Z" fill="#66BCFF"/>
<path d="M103.844 17.3018C104.195 16.8648 104.318 16.387 104.11 16.2216C103.902 16.0562 103.674 16.1399 103.364 16.556C103.23 16.7251 103.085 16.8852 102.929 17.0347C102.578 17.3679 102.661 17.6167 102.828 17.7615C102.994 17.9063 103.492 17.7387 103.844 17.3018Z" fill="black"/>
<path d="M107.368 16.0041C107.368 16.0041 104.895 14.8907 103.834 14.209C102.773 13.5272 102.231 12.5118 102.707 12.2405C103.184 11.9692 104.099 12.6099 104.745 13.4382C104.72 11.9645 104.968 11.6525 105.362 11.6305C105.757 11.6085 105.8 12.1896 105.823 13.0198C105.846 13.85 105.993 14.1817 106.617 14.7402C106.991 15.0747 107.253 15.5158 107.368 16.0041Z" fill="#3442D9"/>
<path d="M98.3187 22.9228C97.7375 22.9245 97.2378 22.4279 97.6918 21.5547C98.1458 20.6815 99.6374 19.8052 100.363 19.4709C101.088 19.1366 101.422 19.4677 101.443 19.7167C101.465 19.9657 101.362 20.3397 100.845 21.0055C100.328 21.6713 99.3772 22.9195 98.3187 22.9228Z" fill="white"/>
<path d="M98.7752 22.8592L98.4227 22.9225L97.9194 21.222L98.209 20.9098L98.7752 22.8592Z" fill="#8CD9FF"/>
<path d="M100.059 21.9419L99.7695 22.2334L99.1818 20.1387L99.4925 19.9302L100.059 21.9419Z" fill="#8CD9FF"/>
<path d="M101.217 20.4855L100.949 20.8599L100.529 19.4082L100.882 19.3449L101.217 20.4855Z" fill="#8CD9FF"/>
<path d="M100.756 19.1584C101.141 19.3408 101.537 19.4992 101.941 19.6323" stroke="black" stroke-linecap="round" stroke-linejoin="round"/>
<path d="M110.038 27.1632C109.64 26.8493 109.153 26.6691 108.646 26.6485C107.567 26.6517 106.968 27.7122 106.764 28.7299C106.731 28.8931 106.643 29.0399 106.515 29.1462C106.387 29.2524 106.226 29.3112 106.06 29.3132L105.914 29.3136C105.821 29.2967 105.731 29.261 105.652 29.2086C105.572 29.1563 105.504 29.0884 105.452 29.0091C105.399 28.9297 105.363 28.8406 105.346 28.747C105.328 28.6533 105.33 28.5572 105.351 28.4643C105.74 26.4912 107.023 25.2212 108.642 25.2163C108.91 25.2188 109.169 25.3122 109.377 25.4814C109.585 25.6503 109.729 25.8851 109.786 26.1468L110.038 27.1632Z" fill="white"/>
<path d="M111.805 34.6925C111.851 34.878 111.859 35.071 111.829 35.2595C111.798 35.4483 111.73 35.6289 111.627 35.7903C111.525 35.9517 111.391 36.0905 111.233 36.1985C111.075 36.3067 110.897 36.3816 110.71 36.4187L110.191 36.4618C109.008 36.4653 107.781 35.7633 106.823 34.5416C106.765 34.4654 106.723 34.3787 106.699 34.2864C106.675 34.1939 106.67 34.0978 106.683 34.0034C106.696 33.9089 106.728 33.8179 106.776 33.7357C106.825 33.6534 106.889 33.5816 106.965 33.5241C107.04 33.4638 107.127 33.4196 107.219 33.394C107.312 33.3686 107.409 33.3623 107.504 33.3755C107.6 33.3889 107.691 33.4214 107.773 33.4716C107.856 33.5216 107.927 33.5878 107.982 33.6663C108.649 34.5153 109.46 35.0317 110.187 35.0295C110.913 35.0273 111.348 34.6109 111.658 34.0703C111.7 34.2985 111.763 34.5058 111.805 34.6925Z" fill="#2331B5"/>
<path d="M110.396 28.7604C110.25 28.7617 110.107 28.8084 109.988 28.8943C109.87 28.9802 109.78 29.1011 109.733 29.2398L108.869 31.588C108.793 31.8085 108.796 32.0482 108.876 32.2671C108.956 32.4861 109.108 32.6708 109.308 32.7906C109.399 32.8457 109.501 32.8801 109.606 32.8905C109.711 32.9012 109.818 32.8878 109.917 32.8516C110.017 32.8154 110.107 32.7572 110.181 32.6814C110.255 32.6057 110.311 32.5142 110.345 32.4138L110.901 30.8969C110.754 30.2123 110.585 29.5071 110.396 28.7604Z" fill="#5865F2"/>
<path d="M109.308 32.7905C109.108 32.6707 108.956 32.486 108.875 32.267C108.795 32.0481 108.793 31.8084 108.869 31.5879L109.116 30.9437C109.157 30.8313 109.222 30.7291 109.307 30.6442C109.391 30.5595 109.493 30.494 109.606 30.4521C109.718 30.4105 109.838 30.3935 109.957 30.4025C110.077 30.4115 110.193 30.4462 110.298 30.5042C110.469 30.6035 110.6 30.759 110.669 30.9446C110.737 31.1299 110.739 31.3333 110.674 31.5201L110.345 32.4137C110.311 32.5141 110.255 32.6055 110.181 32.6813C110.107 32.7571 110.017 32.8153 109.917 32.8515C109.818 32.8877 109.711 32.9011 109.606 32.8904C109.5 32.88 109.399 32.8458 109.308 32.7905Z" fill="#FFE75C"/>
</g>
<g clip-path="url(#clip1_1_454)">
<rect x="73.7432" y="5.13574" width="29.1892" height="29.1892" rx="14.5946" transform="rotate(-0.173721 73.7432 5.13574)" fill="#3442D9"/>
<path d="M80.2535 16.5869C79.394 13.7666 78.9332 12.4188 80.4667 11.5839C82.0002 10.7489 86.6721 11.2952 88.8531 11.8075C91.0342 12.3198 91.3472 12.8586 89.9214 15.0008L80.2535 16.5869Z" fill="#FFF4B3"/>
<path d="M79.3344 41.9754C78.9768 33.5907 79.1632 26.6159 79.4218 22.8996C78.0284 21.9905 77.3828 21.2868 77.1117 20.8932C77.0554 20.8174 77.0265 20.7247 77.0302 20.6303C77.0336 20.536 77.0691 20.4456 77.1309 20.3742C79.3227 17.6069 81.2043 15.1934 83.1728 14.0666C85.1413 12.9397 87.8388 12.641 92.1483 16.9038C92.1896 16.9584 92.2102 17.0259 92.2066 17.0942C92.2031 17.1627 92.1755 17.2275 92.1287 17.2775C91.7885 17.6173 91.4291 17.9372 91.0523 18.2356C91.9288 19.7897 93.2021 22.1521 93.2021 22.1521L94.1984 22.1491C94.8369 22.1471 95.4502 22.3989 95.903 22.8492C96.3561 23.2993 96.6116 23.9109 96.6135 24.5495C96.6401 26.4799 96.1905 28.806 95.307 31.7976C99.3021 35.0236 98.3474 41.897 98.3474 41.897L79.3344 41.9754Z" fill="#29CC7A"/>
<path d="M95.3067 31.7975C95.4299 31.3613 95.5532 30.9665 95.6558 30.5511L92.5268 32.3041C92.5268 32.3041 87.5558 28.9773 79.2261 26.9269C79.0925 30.7881 79.0876 36.0188 79.334 41.9753L98.3471 41.9177C98.3471 41.9177 99.3018 35.0235 95.3067 31.7975Z" fill="#8CD9FF"/>
<path d="M96.0982 32.5632C95.8554 32.2873 95.5908 32.0313 95.3071 31.7976C95.4304 31.3613 95.5537 30.9666 95.6562 30.5511L92.5273 32.3042C92.5273 32.3042 87.5563 28.9774 79.2266 26.927C79.2073 27.4045 79.1881 27.9234 79.1897 28.4424C85.5699 31.0591 89.0085 35.5737 89.4222 41.9448L94.134 41.9305C94.9532 38.2748 95.6077 35.0763 96.0982 32.5632Z" fill="#BAE8FF"/>
<path d="M81.7303 24.4908L81.8134 24.4906C81.8548 24.4489 81.8962 24.428 81.9168 24.3657L83.7049 18.5276C83.7169 18.5031 83.7237 18.4763 83.7242 18.4489C83.7247 18.4217 83.7195 18.3945 83.7084 18.3696C83.6975 18.3445 83.6811 18.3222 83.6607 18.3042C83.6401 18.2862 83.6159 18.273 83.5896 18.2654C83.5634 18.2578 83.5358 18.256 83.5088 18.26C83.4818 18.2642 83.4561 18.2743 83.4333 18.2895C83.4107 18.3047 83.3917 18.3247 83.3775 18.3482C83.3634 18.3715 83.3546 18.3977 83.3517 18.4249L81.6253 24.076C80.8711 23.757 80.1474 23.37 79.4631 22.9202L79.4216 22.9203C79.422 23.0448 79.4016 23.1902 79.402 23.3147C80.1206 23.774 80.879 24.1677 81.6681 24.491L81.7303 24.4908Z" fill="black"/>
<path d="M89.4236 15.0854L81.9943 15.6476C90.3018 17.1999 90.6553 17.4272 89.4236 15.0854Z" fill="black"/>
<path d="M87.5826 20.49C87.8691 20.3733 87.9191 19.831 87.6941 19.2789C87.4691 18.7271 87.0545 18.3742 86.7678 18.4909C86.4811 18.6078 86.4313 19.1499 86.6563 19.702C86.8811 20.2541 87.2959 20.6069 87.5826 20.49Z" fill="black"/>
<path d="M89.7261 21.6311C90.094 20.9309 90.0469 20.1817 89.6207 19.9578C89.1945 19.7337 88.5508 20.1199 88.1826 20.8199C87.8147 21.5201 87.862 22.2692 88.288 22.4934C88.7142 22.7173 89.3581 22.3313 89.7261 21.6311Z" stroke="white" stroke-miterlimit="10"/>
<path d="M92.7826 21.626C93.1506 20.926 93.1034 20.1769 92.6772 19.9527C92.2511 19.7288 91.6073 20.1148 91.2393 20.815C90.8714 21.5152 90.9185 22.2644 91.3447 22.4883C91.7709 22.7122 92.4146 22.3263 92.7826 21.626Z" stroke="white" stroke-miterlimit="10"/>
<path d="M90.6794 20.3804C90.8706 20.3026 90.8502 19.8092 90.6337 19.2783C90.4175 18.7476 90.0872 18.3804 89.8961 18.4584C89.7051 18.5362 89.7255 19.0295 89.9417 19.5604C90.1582 20.0911 90.4885 20.4584 90.6794 20.3804Z" fill="black"/>
<path d="M92.6732 25.8068C91.0706 25.8169 89.5138 25.2716 88.268 24.2634C86.9779 23.2088 87.4964 23.0826 88.3059 23.0594C89.1153 23.0362 92.9973 23.1697 94.1186 23.3324C95.24 23.4951 95.4543 25.7154 92.6732 25.8068Z" fill="#912869"/>
<path d="M92.6732 25.8068C91.0706 25.8169 89.5138 25.2716 88.268 24.2634C86.9779 23.2088 87.4964 23.0826 88.3059 23.0594C89.1153 23.0362 92.9973 23.1697 94.1186 23.3324C95.24 23.4951 95.4543 25.7154 92.6732 25.8068Z" fill="#611B46"/>
<path d="M92.5975 28.1319L92.5122 27.3641C93.0984 27.3156 93.6694 27.1516 94.192 26.8816" stroke="black" stroke-linecap="round" stroke-linejoin="round"/>
<path d="M93.441 25.7007C92.3169 24.6248 90.7992 23.8199 87.9976 24.0152C90.4121 26.2288 92.9226 25.8476 93.441 25.7007Z" fill="#EB459F"/>
<path d="M89.8564 20.896L91.1226 20.8922" stroke="white" stroke-miterlimit="10"/>
<path d="M87.9475 21.1508L82.5857 18.9876C82.4733 18.9443 82.352 18.9291 82.2325 18.9428C82.1128 18.9566 81.9983 18.9991 81.8985 19.0667C81.7988 19.1342 81.7169 19.225 81.6599 19.331C81.6028 19.437 81.5722 19.5552 81.5707 19.6756C81.5686 19.8174 81.6093 19.9563 81.6875 20.0746C81.7655 20.1927 81.8775 20.2847 82.0086 20.3385L82.362 20.5035" stroke="white" stroke-miterlimit="10" stroke-linecap="round"/>
<path d="M86.8184 18.4351C87.2396 18.4446 87.6599 18.3873 88.0633 18.2653" stroke="black" stroke-miterlimit="10" stroke-linecap="round"/>
<path d="M89.9317 18.4257C90.1972 18.4317 90.4604 18.3741 90.6991 18.2573" stroke="black" stroke-miterlimit="10" stroke-linecap="round"/>
<path d="M80.9569 15.8583C88.3667 15.732 90.8757 14.8941 92.9906 14.1197C95.1054 13.3453 94.8961 12.744 93.2772 12.8112C91.6584 12.8783 86.1228 15.0123 80.9569 15.8583Z" fill="#FFF4B3"/>
<path d="M80.9573 15.8583L83.489 15.643L89.5671 14.4207L88.0473 12.9308L80.8032 12.9528L80.9573 15.8583Z" fill="#FFF4B3"/>
<path d="M93.2477 23.4802L91.7944 23.4016C91.9631 24.2729 92.3796 24.7283 92.7321 24.5819C93.0845 24.4355 93.2067 23.6672 93.2477 23.4802Z" fill="white"/>
<path d="M88.7637 23.307C88.9535 24.3028 89.3287 24.8205 89.6811 24.6534C90.0334 24.4863 90.1139 23.6558 90.1752 23.3235L88.7637 23.307Z" fill="white"/>
<path d="M90.4148 13.4426C87.2182 14.3094 83.9776 15.0052 80.7069 15.527" stroke="#FFC619" stroke-width="2" stroke-miterlimit="10" stroke-linecap="round"/>
</g>
<g clip-path="url(#clip2_1_454)">
<rect x="52.3408" y="6.17358" width="29.1892" height="29.1892" rx="14.5946" transform="rotate(-0.173721 52.3408 6.17358)" fill="#7196FF"/>
<path d="M63.3169 31.0908L62.6777 31.7285L67.3479 36.3314L67.9873 35.6935L63.3169 31.0908Z" fill="#2E3338"/>
<path d="M66.2282 31.0889L65.5888 31.7266L70.2591 36.3293L70.8984 35.6916L66.2282 31.0889Z" fill="#2E3338"/>
<path d="M71.4713 30.274C72.6735 29.0691 73.4149 27.4868 73.5681 25.799C73.7213 24.111 73.2767 22.423 72.3109 21.0249L69.281 16.6356L65.7126 16.6464L65.7296 22.2568C65.7311 22.7442 65.5372 23.2122 65.1907 23.5579C64.8442 23.9035 64.3734 24.0985 63.8818 24.1L58.1447 24.1174L58.1485 25.3881C58.1542 27.2564 58.9068 29.046 60.2412 30.3649C61.5757 31.6838 63.3833 32.4242 65.2675 32.4236L66.3124 32.4204C68.2483 32.3984 70.0992 31.6284 71.4713 30.274Z" fill="#FFD836"/>
<path d="M69.2746 14.5833C70.221 14.5804 71.1298 14.9505 71.8011 15.612C72.4722 16.2735 72.851 17.1723 72.8538 18.1108L72.8566 19.0295L65.7196 19.0512L65.7167 18.1129C65.7191 17.1778 66.0947 16.2817 66.7614 15.6203C67.428 14.959 68.3316 14.5861 69.2746 14.5833Z" fill="#FFD836"/>
<path d="M73.8975 17.7165C74.0698 17.8844 74.206 18.0851 74.2982 18.3066C74.3903 18.528 74.4365 18.7656 74.4337 19.0051L71.023 19.0155C70.8962 19.0133 70.7728 18.9745 70.668 18.9038C70.5631 18.8331 70.4814 18.7335 70.4329 18.6174C70.3844 18.5012 70.3711 18.3735 70.3948 18.25C70.4185 18.1265 70.478 18.0125 70.5662 17.9221L71.2542 17.2358L71.2512 16.2584C71.2507 16.1321 71.2996 16.0105 71.3874 15.9191C71.4754 15.8278 71.5956 15.7737 71.7229 15.7683C71.8529 15.7748 71.9773 15.8224 72.0782 15.904L73.8975 17.7165Z" fill="#FF9A15"/>
<path d="M69.2744 14.5831L68.2294 14.5862C66.9433 14.5885 65.7085 14.0863 64.7947 13.1891L64.2803 12.6238L64.2813 12.9757C64.2848 14.1163 64.7451 15.2088 65.561 16.0128C66.3768 16.8169 67.4814 17.2667 68.6318 17.2632L69.2627 17.2613L69.2744 14.5831Z" fill="#FFD836"/>
<path d="M64.2124 16.2014L67.0711 16.1927L67.0797 19.0273L64.2124 16.2014Z" fill="#FFD836"/>
<path d="M59.8086 26.8493C60.3451 27.9769 61.2992 28.8561 62.4725 29.3043C63.6459 29.7525 64.9483 29.7353 66.1092 29.2561C67.2701 28.7771 68.2003 27.8729 68.7064 26.7315C69.2125 25.5901 69.2557 24.2993 68.827 23.1273L59.8086 26.8493Z" fill="#FF9A15"/>
<path d="M54.9805 20.9993L57.2154 23.2992C57.5087 23.5846 57.7422 23.9248 57.9023 24.3001C58.0626 24.6754 58.1463 25.0784 58.1486 25.4858L59.7456 25.481L59.7422 24.3669C59.7384 23.7441 59.5266 23.1403 59.1398 22.6498C58.7531 22.1593 58.2132 21.8098 57.6047 21.656L54.9805 20.9993Z" fill="#FFD836"/>
<path d="M59.1914 24.8181L59.0145 24.9945C58.942 25.064 58.8504 25.1107 58.7511 25.1287C58.6519 25.1468 58.5495 25.1355 58.4568 25.0961C58.364 25.0567 58.2851 24.9911 58.2298 24.9074C58.1746 24.8238 58.1453 24.7258 58.146 24.6257L58.1304 19.4845L59.1784 20.5175C59.7485 21.0896 60.0693 21.8607 60.0717 22.665C60.0742 23.4694 59.7581 24.2425 59.1914 24.8181Z" fill="#FFD836"/>
<path d="M69.4997 17.2606C69.7502 17.2599 69.9525 17.058 69.9518 16.8097C69.951 16.5613 69.7474 16.3607 69.4969 16.3614C69.2465 16.3622 69.0441 16.5641 69.0448 16.8124C69.0456 17.0607 69.2492 17.2614 69.4997 17.2606Z" fill="#202225"/>
</g>
<g clip-path="url(#clip3_1_454)">
<rect x="31.4233" y="6.72339" width="29.1892" height="29.1892" rx="14.5946" transform="rotate(-0.173721 31.4233 6.72339)" fill="#FF78B9"/>
<path d="M55.2228 40.9592C56.2084 38.8764 53.5384 35.5464 49.2588 33.521C44.9794 31.4957 40.7111 31.5423 39.7255 33.6251C38.7398 35.7077 41.4099 39.0379 45.6895 41.0633C49.9688 43.0884 54.2371 43.0418 55.2228 40.9592Z" fill="black"/>
<path d="M55.7417 29.4416C54.4731 28.6567 54.4109 28.6776 53.7013 27.4136C52.9918 26.1496 52.0974 25.5296 51.0591 25.3875L52.3742 34.7033C55.075 35.4839 56.7314 34.1089 57.1009 32.7586C57.4704 31.4083 57.031 30.2264 55.7417 29.4416Z" fill="#3442D9"/>
<path d="M54.4791 30.67C54.1217 29.1558 53.1823 27.3943 52.0781 26.0692C51.6825 25.5905 51.4012 25.0278 51.2555 24.424C51.1099 23.8202 51.1036 23.1912 51.2373 22.5847L51.6877 20.5076C52.0044 19.066 51.8286 17.5599 51.1888 16.2298C50.5487 14.8998 49.4815 13.8226 48.1575 13.1704C47.3977 12.7992 46.5713 12.5829 45.727 12.5343C44.1382 12.4227 42.5684 12.9347 41.3508 13.9615C40.1332 14.9882 39.3636 16.449 39.2053 18.0339C39.1716 18.3024 39.1586 18.573 39.1662 18.8435L39.1689 19.7361L39.2218 23.4721C39.2719 25.1506 38.9212 26.8165 38.1987 28.3323C37.8987 28.9337 37.6708 29.5685 37.5194 30.2232L47.7022 40.9859C52.536 40.1618 55.5523 35.4823 54.4791 30.67Z" fill="#3442D9"/>
<path d="M47.7232 40.9859C52.5363 40.1618 55.5526 35.4823 54.4794 30.67C54.143 29.2388 53.2869 27.5808 52.2659 26.297" stroke="black" stroke-miterlimit="10" stroke-linecap="round"/>
<path d="M51.2423 30.9912C52.1924 29.4108 52.5666 29.6173 54.27 30.0687C55.641 30.4175 57.227 33.2148 55.1349 34.6326C53.0428 36.0504 48.7643 35.2124 51.2423 30.9912Z" fill="#3442D9"/>
<path d="M46.4963 26.3534C46.6873 26.2065 46.7171 25.9255 46.5633 25.7255C46.4095 25.5256 46.1302 25.4827 45.9395 25.6294C45.7488 25.7763 45.7187 26.0572 45.8725 26.2571C46.0263 26.4571 46.3056 26.5001 46.4963 26.3534Z" fill="black"/>
<path d="M49.1113 26.5077C49.302 26.361 49.3321 26.0798 49.1783 25.88C49.0245 25.6802 48.7452 25.637 48.5543 25.7839C48.3635 25.9306 48.3334 26.2118 48.4872 26.4116C48.641 26.6114 48.9203 26.6546 49.1113 26.5077Z" fill="black"/>
<path d="M48.8403 26.1829C51.0668 28.0027 50.1575 29.3132 51.9508 32.0061" stroke="white" stroke-miterlimit="10" stroke-linecap="round"/>
<path d="M46.3416 30.2796C47.7086 29.3206 48.1229 29.0495 48.6419 29.0687L49.9915 29.1891L49.6552 34.67L46.2301 34.5766L46.3416 30.2796Z" fill="#FFC619"/>
<path d="M52.9792 28.8687C53.005 28.7961 53.0132 28.7185 53.0039 28.6421C52.9945 28.5658 52.9675 28.4926 52.9252 28.4284C52.8826 28.3641 52.826 28.3106 52.7595 28.2719C52.6927 28.2333 52.6182 28.2107 52.5413 28.2058L50.2571 27.8806C50.0914 27.8634 49.9246 27.9038 49.7852 27.9949C49.6456 28.0861 49.5416 28.2223 49.4906 28.3811L48.2182 33.159C48.1927 33.2317 48.1842 33.3092 48.1935 33.3855C48.2029 33.4619 48.2299 33.5351 48.2722 33.5993C48.3148 33.6635 48.3714 33.7171 48.4381 33.7557C48.5047 33.7943 48.5793 33.8169 48.6561 33.8219L50.9403 34.1471C51.1062 34.1642 51.2728 34.1239 51.4124 34.0327C51.5518 33.9416 51.6558 33.8053 51.7068 33.6466L52.9792 28.8687Z" fill="black"/>
<path d="M52.8744 28.3916L53.1243 28.6815L52.4395 28.7458L52.8744 28.3916Z" fill="black"/>
<path d="M54.0045 31.5431C53.7124 31.0666 53.4408 30.4655 52.6516 30.3433L52.5509 31.3399L54.0045 31.5431Z" fill="#FFC619"/>
<path d="M53.2084 29.1379C53.2299 29.0654 53.2353 28.989 53.2241 28.9141C53.2129 28.8392 53.1855 28.7677 53.1437 28.7045C53.102 28.6413 53.0471 28.5881 52.9826 28.5485C52.9181 28.5088 52.8456 28.4837 52.7705 28.475L50.4655 28.1499C50.3004 28.1365 50.1353 28.1785 49.9967 28.269C49.8579 28.3597 49.7531 28.4937 49.699 28.6504L48.4265 33.4283C48.405 33.5008 48.3996 33.5772 48.4108 33.6521C48.4221 33.727 48.4495 33.7986 48.4912 33.8617C48.5329 33.9249 48.5878 33.9783 48.6523 34.0178C48.717 34.0574 48.7893 34.0825 48.8644 34.0912L51.1694 34.3956C51.3309 34.4217 51.4965 34.3869 51.634 34.2985C51.7716 34.2098 51.8719 34.0738 51.9152 33.9159L53.2084 29.1379Z" fill="white"/>
<path d="M52.5085 31.0289L53.4429 31.1713C53.6323 31.1917 53.8059 31.2856 53.9267 31.4326C54.0476 31.5798 54.1057 31.7686 54.0888 31.9581C54.0843 32.0567 54.0593 32.1533 54.0153 32.2417C53.9712 32.3298 53.9092 32.408 53.8332 32.4708C53.757 32.5337 53.6687 32.5798 53.5735 32.6063C53.4785 32.6329 53.3789 32.6392 53.2813 32.6248L52.596 32.5231C52.3832 32.4932 52.1861 32.3938 52.0353 32.2404C51.8848 32.0869 51.7891 31.8881 51.7632 31.6746C51.7577 31.5795 51.7742 31.4844 51.8113 31.3967C51.8484 31.309 51.9052 31.231 51.9771 31.1685C52.0491 31.1062 52.1345 31.0611 52.2266 31.037C52.3187 31.0128 52.4152 31.01 52.5085 31.0289Z" fill="#FFC619"/>
<path d="M52.2014 32.4204L52.8451 32.5222C52.9529 32.5356 53.0564 32.572 53.1485 32.6292C53.2406 32.6864 53.3191 32.7632 53.3786 32.8537C53.4382 32.9445 53.4773 33.0471 53.4932 33.1543C53.5091 33.2616 53.5013 33.371 53.4707 33.4751C53.427 33.6425 53.3216 33.7873 53.1755 33.8801C53.0295 33.9729 52.8538 34.0071 52.6835 33.9757L52.2889 33.9146C52.0736 33.8856 51.8736 33.7869 51.7195 33.6338C51.5655 33.4807 51.4657 33.2813 51.4353 33.0661C51.429 32.9688 51.4457 32.8716 51.4839 32.7818C51.5222 32.6923 51.5809 32.6128 51.6554 32.5499C51.73 32.4872 51.8181 32.4427 51.913 32.4202C52.0078 32.3977 52.1066 32.3978 52.2014 32.4204Z" fill="#FFC619"/>
<path d="M50.1951 34.7928L47.9525 34.4882L48.0535 33.5746L50.2962 33.8999L50.1951 34.7928Z" fill="#FFC619"/>
<path d="M50.7237 31.1588L49.3116 30.9555C49.2444 30.9466 49.1812 30.9183 49.1294 30.8745C49.0777 30.8304 49.0398 30.7724 49.0203 30.7073L48.8946 30.3341L48.7885 29.5664L48.0287 32.2671L50.3129 32.5923C50.5256 32.6201 50.7413 32.5754 50.9255 32.4657C51.1097 32.3559 51.2516 32.1876 51.3282 31.9872C51.3526 31.8923 51.3556 31.7931 51.3373 31.6968C51.3187 31.6006 51.2792 31.5096 51.2215 31.4305C51.1637 31.3511 51.089 31.2858 51.0031 31.2389C50.9171 31.1918 50.8217 31.1645 50.7237 31.1588Z" fill="#FFC619"/>
<path d="M50.2715 32.5716L48.0288 32.2671L48.1371 33.7613L49.8607 34.0051C50.071 34.0358 50.2853 33.992 50.4668 33.8816C50.6483 33.7713 50.7856 33.6009 50.8552 33.4001C50.8833 33.3067 50.8899 33.208 50.8744 33.1116C50.8588 33.0151 50.8213 32.9237 50.7653 32.8437C50.709 32.764 50.6353 32.698 50.5496 32.6507C50.4642 32.6036 50.369 32.5765 50.2715 32.5716Z" fill="#FFC619"/>
<path d="M66.199 41.6771C66.2545 39.4352 64.4061 39.0879 63.1375 38.303C61.869 37.5181 60.3695 35.8621 58.8093 34.7459C57.2492 33.6298 55.9001 33.6547 53.2664 34.4722L56.2939 40.3164C57.9986 41.183 58.3751 42.1367 59.2923 43.4208C60.2095 44.705 61.4356 45.1994 62.6596 44.9674C63.3062 46.024 63.4315 46.2727 64.3646 45.9378C65.2976 45.6029 66.8315 44.8925 67.2429 43.6666C67.6543 42.4407 67.0517 42.2349 66.199 41.6771Z" fill="#66BCFF"/>
<path d="M56.1588 36.8712C55.8825 37.7631 55.7045 38.6823 55.6274 39.6127" stroke="black" stroke-width="2" stroke-miterlimit="10" stroke-linecap="round"/>
<path d="M57.4162 47.6609C55.5325 49.3687 53.9328 48.8961 53.1853 48.8154C52.4378 48.7346 52.5192 48.1947 52.4556 47.7382C52.3919 47.2818 52.3483 46.5969 52.3483 46.5969C50.4591 46.4781 50.2269 45.1919 50.1819 44.0504C50.1369 42.9089 49.8458 42.7437 49.6981 41.9347C47.4194 41.5325 45.2641 40.6112 43.3989 39.2417C41.5337 37.8724 40.0091 36.0917 38.9428 34.0382L40.9104 32.6L45.3195 35.4511C48.2843 34.342 49.9224 33.7766 51.5203 33.6679C53.1183 33.5593 54.6976 34.1565 55.2233 36.3758C55.7489 38.5952 55.8133 39.28 56.2939 40.3372C56.4193 40.6066 56.6279 40.9796 56.8367 41.3734C57.4215 42.5547 58.0285 44.2134 56.8508 46.0228C56.9968 46.5826 57.1859 47.1305 57.4162 47.6609Z" fill="#8CD9FF"/>
<path d="M42.1726 38.2211C42.1059 36.7476 42.6632 35.7081 43.6798 35.5389L41.1005 33.7617L39.2349 34.5768C39.7163 35.9038 40.9454 37.3531 42.1726 38.2211Z" fill="black"/>
<path d="M46.3823 29.9888C45.7788 29.4717 45.3222 29.5146 44.5967 29.8282C43.8266 29.1248 42.8299 29.024 41.7932 29.38C40.7564 29.736 39.1596 30.2183 38.2263 30.4702C38.1742 30.4899 38.1176 30.494 38.0632 30.4823C38.0088 30.4705 37.9589 30.4434 37.9193 30.4043C37.88 30.365 37.8526 30.3152 37.8406 30.2609C37.8284 30.2066 37.8324 30.1499 37.8515 30.0977L38.529 27.6048C36.313 29.2721 35.5973 32.8237 36.3089 34.7519C37.0205 36.6802 40.0924 36.6501 41.0663 36.1075C42.0402 35.5648 42.3718 35.3978 43.4933 35.6019C44.6148 35.8061 45.487 35.9488 46.9574 34.8234L47.8283 34.5302C48.1546 32.6403 47.8599 31.2713 46.3823 29.9888Z" fill="#3442D9"/>
<path d="M46.382 29.9887C45.7785 29.4717 45.322 29.5146 44.5964 29.8281C43.8263 29.1247 42.8297 29.0239 41.7929 29.38C40.7561 29.736 39.1593 30.2182 38.226 30.4701" stroke="black" stroke-miterlimit="10" stroke-linecap="round"/>
<path d="M44.5967 29.8282C45.2181 30.3065 45.7362 30.9056 46.12 31.5892C46.5038 32.273 46.7452 33.0274 46.8297 33.8068" stroke="black" stroke-miterlimit="10" stroke-linecap="round"/>
<path d="M50.8837 29.1865C50.8929 29.1578 50.896 29.1275 50.8923 29.0974C50.8887 29.0676 50.8787 29.0387 50.8626 29.0132C50.8468 28.9876 50.8255 28.9656 50.8004 28.9491C50.7752 28.9326 50.7467 28.9216 50.7168 28.9172L50.5093 28.9178C50.4515 28.9053 50.3911 28.9159 50.341 28.947C50.2907 28.978 50.2545 29.0273 50.2399 29.0847L50.0552 29.7702C50.0457 29.8005 50.0433 29.8325 50.0482 29.8638C50.0531 29.8952 50.065 29.9248 50.0829 29.9509C50.1011 29.9768 50.125 29.9983 50.1527 30.0138C50.1803 30.0291 50.2113 30.0379 50.2428 30.0395L50.4504 30.0388C50.505 30.0457 50.5602 30.0325 50.606 30.0018C50.6515 29.9712 50.6846 29.9252 50.699 29.872L50.8837 29.1865Z" fill="#29CC7A"/>
<path d="M47.5505 25.2112C47.71 24.8859 47.946 24.6042 48.238 24.39C48.5302 24.1758 48.87 24.0357 49.2281 23.9815C49.2696 23.9814 49.2903 23.9398 49.2695 23.9191C48.9966 22.9236 49.1194 22.3628 49.4701 21.6352C49.4736 21.63 49.4759 21.624 49.4767 21.6177C49.4775 21.6114 49.4769 21.605 49.475 21.599C49.4729 21.593 49.4695 21.5875 49.465 21.583C49.4606 21.5785 49.4552 21.5751 49.4492 21.573C48.2853 21.0784 47.8469 20.2495 47.7204 19.6271C47.6996 19.5857 47.6372 19.5651 47.6166 19.6067C47.1008 20.6461 46.3952 20.6898 45.793 20.6086C45.7515 20.6087 45.7309 20.6503 45.7517 20.6709C46.3572 21.8315 45.9238 22.6631 45.3236 23.2461C45.3205 23.2542 45.3189 23.263 45.3193 23.2717C45.3198 23.2805 45.3221 23.289 45.326 23.2969C45.33 23.3047 45.3354 23.3116 45.3423 23.3172C45.349 23.3227 45.3569 23.3267 45.3654 23.329C46.5284 23.533 47.1534 24.2991 47.4467 25.1908C47.4676 25.2322 47.5299 25.2528 47.5505 25.2112Z" fill="#FFC619"/>
<path d="M50.2715 32.5716L49.0879 32.4092" stroke="black" stroke-miterlimit="10" stroke-linecap="round"/>
<path d="M52.4297 32.5028L53.0942 32.6046" stroke="black" stroke-miterlimit="10" stroke-linecap="round"/>
<path d="M47.6788 19.5858C48.1941 18.4218 48.1502 17.6124 48.0035 17.1562" stroke="black" stroke-miterlimit="10" stroke-linecap="round"/>
<path d="M49.3458 21.6149C49.6698 21.6635 50.0006 21.6419 50.3154 21.5514C50.6304 21.4609 50.9222 21.3037 51.1708 21.0904" stroke="black" stroke-miterlimit="10" stroke-linecap="round"/>
<path d="M47.5505 25.2112C47.5527 25.3657 47.5322 25.5197 47.4897 25.6681" stroke="black" stroke-miterlimit="10" stroke-linecap="round"/>
<path d="M45.4274 23.2666C44.661 23.8086 43.4984 23.7291 42.6881 23.4825" stroke="black" stroke-miterlimit="10" stroke-linecap="round"/>
<path d="M45.793 20.6085C45.5006 20.0074 44.9588 19.3241 44.46 19.0973" stroke="black" stroke-miterlimit="10" stroke-linecap="round"/>
<path d="M49.2695 23.9189C49.5377 24.061 49.8245 24.165 50.1215 24.2277" stroke="black" stroke-miterlimit="10" stroke-linecap="round"/>
<path d="M47.0419 21.705C47.3989 23.0738 47.8553 22.9894 48.0616 22.5737C48.2679 22.1579 48.4117 21.6385 48.7439 21.679C49.0761 21.7196 48.9949 22.301 48.603 23.1325C48.2111 23.9639 47.5682 24.1527 46.9641 23.428C46.36 22.7034 46.3371 21.9977 46.3148 21.4996C46.2925 21.0015 46.8111 20.8754 47.0419 21.705Z" fill="#C40655"/>
<path d="M46.2245 26.0248C46.4823 28.8884 45.0335 30.2628 44.5854 33.1078" stroke="white" stroke-miterlimit="10" stroke-linecap="round"/>
<path d="M49.5316 41.9559C49.1543 40.7324 48.9814 38.4912 49.9925 36.5162" stroke="black" stroke-width="2" stroke-miterlimit="10" stroke-linecap="round"/>
<path d="M39.035 30.2395L37.5005 30.7423" stroke="black" stroke-miterlimit="10" stroke-linecap="round"/>
<path d="M54.2905 30.0063L55.3292 30.2938" stroke="black" stroke-miterlimit="10" stroke-linecap="round"/>
</g>
<g clip-path="url(#clip4_1_454)">
<rect x="10.5044" y="6.78687" width="29.1892" height="29.1892" rx="14.5946" transform="rotate(-0.173721 10.5044 6.78687)" fill="url(#paint0_linear_1_454)"/>
<path d="M37.0185 18.372C38.5293 12.5544 39.2606 11.5212 42.7966 19.0094L37.0185 18.372Z" fill="#D4E1FF"/>
<path d="M22.5855 30.8351L22.4468 30.9552C24.5566 32.9329 27.7686 38.021 32.6302 37.7491C32.6302 37.7491 36.5822 44.9187 40.8082 44.1128C45.0342 43.306 48.1517 37.3445 48.1517 37.3445C49.2904 35.2867 50.0945 33.0608 50.5335 30.7504C50.4725 30.2154 50.2727 29.7989 49.8951 29.5421C46.8716 27.548 24.784 29.2221 22.5855 30.8351Z" fill="#1C1B29"/>
<path d="M28.9524 16.095L33.3821 17.2717C34.6974 16.7047 36.1162 16.4169 37.5485 16.4266C44.2968 16.4061 47.9062 21.8707 47.9266 28.5958C47.947 35.3216 44.3708 40.808 37.6225 40.8285C30.8733 40.849 27.284 35.3843 27.2636 28.6584C27.2566 27.6681 27.3332 26.6789 27.4925 25.7014C27.942 23.1205 27.8126 20.4707 27.1114 17.9456C27.0432 17.6904 27.0432 17.4217 27.1113 17.1664C27.1794 16.9111 27.3134 16.6782 27.4997 16.4908C27.6861 16.3035 27.9183 16.1684 28.1732 16.0989C28.4281 16.0295 28.6968 16.0281 28.9524 16.095Z" fill="#B3CAFF"/>
<path d="M47.6978 31.5135C44.4269 32.9714 41.0481 31.4533 37.7872 29.5989C34.2276 27.5662 31.929 22.3949 30.9516 20.7513C29.9743 19.107 28.5832 18.7946 27.6237 16.3972C27.397 16.5776 27.228 16.8201 27.1372 17.0952C27.0463 17.3702 27.0378 17.6658 27.1125 17.9456C27.8131 20.4709 27.943 23.1205 27.4928 25.7022C27.3335 26.6794 27.2569 27.6683 27.2639 28.6584C27.2843 35.3843 30.8936 40.8489 37.6227 40.8285C43.3594 40.8111 46.8011 36.8326 47.6978 31.5127L47.6978 31.5135Z" fill="#8DAEF7"/>
<path d="M47.0962 29.5104C47.1121 34.7481 44.0088 39.0036 40.1774 39.0152C36.3467 39.0268 33.2369 34.7902 33.221 29.5525C33.1948 20.9029 38.5954 27.9692 42.4268 27.9576C46.2574 27.946 47.1726 22.0908 47.0962 29.5104Z" fill="#FCFDFF"/>
<path d="M40.2788 34.5815C40.6507 34.5491 40.9079 34.0276 40.8554 33.4162C40.8021 32.8049 40.4576 32.3358 40.0864 32.3675C39.7153 32.4007 39.4573 32.9222 39.5106 33.5328C39.5639 34.1442 39.9076 34.614 40.2788 34.5815ZM44.8359 33.5544C44.945 32.9506 44.736 32.4072 44.3686 32.3416C44.002 32.2752 43.616 32.7112 43.5069 33.315C43.3986 33.918 43.6076 34.4614 43.9742 34.5278C44.3409 34.5941 44.7269 34.1582 44.8359 33.5544Z" fill="#1C1B29"/>
<path d="M60.3547 94.5831C57.5376 95.1871 49.0774 87.1778 49.0774 87.1778C51.4218 94.4711 51.8254 96.6524 52.2281 98.5356C52.6308 100.42 52.3932 100.797 52.239 102.127C52.0839 103.456 52.0838 103.417 52.8827 105.081C53.6817 106.745 54.202 107.914 54.3629 108.767C54.4238 109.262 54.4053 109.764 54.3079 110.254L18.8368 110.362C18.8368 110.362 18.6552 109.569 19.4031 107.364C20.151 105.16 21.8723 103.33 22.8203 101.938C23.7691 100.546 23.7101 100.686 23.4504 100.111C22.251 97.2974 24.1782 97.9071 24.9794 93.6786C25.7798 89.4502 25.9774 69.2927 27.7581 61.0547C29.5395 52.8159 32.2931 50.8629 32.4709 44.0577C29.1065 40.9339 20.7649 32.8045 22.4468 30.9544C24.3575 32.7342 30.0767 33.5903 34.7413 33.5368C35.1505 33.5297 35.5514 33.6518 35.8872 33.8858C36.2229 34.1198 36.4762 34.4538 36.6111 34.8401C37.4123 37.238 39.4316 41.9738 42.5862 41.3487C45.7407 40.7244 48.0652 35.0826 48.7147 33.0372C48.8516 32.5907 49.1375 32.2047 49.5246 31.9435C49.9471 31.6277 50.2921 31.22 50.5335 30.7511C50.9825 34.6576 44.5227 45.0328 44.5227 45.0328C44.5227 45.0328 46.1732 59.0743 49.4031 63.6867C52.6322 68.2999 61.6643 68.2725 61.8954 72.6762C62.1274 77.079 63.1517 93.9791 60.3547 94.5831Z" fill="#BD4070"/>
<path d="M32.9005 35.2082C30.5577 35.0763 27.4009 34.6889 22.3315 32.1851C23.1537 35.1381 29.6246 41.388 32.4709 44.0577C32.4345 46.1684 32.0588 48.2596 31.3582 50.251C33.9294 53.8737 37.0192 51.5035 37.6062 61.6991C37.8572 66.0432 41.0705 71.8064 44.4243 78.0456C47.778 84.2848 48.1996 72.7965 48.0434 67.143C47.9546 64.068 47.3283 60.2609 46.6616 56.6324C45.2363 51.1411 44.5226 45.0328 44.5226 45.0328C44.5226 45.0328 49.0464 37.758 50.2626 33.1121C49.953 33.3059 49.7112 33.5911 49.5708 33.9274C48.3478 36.7072 46.9778 39.42 45.4667 42.0543C43.9061 44.698 40.9923 46.0159 37.6217 40.8286C34.2518 35.6405 35.4218 35.3597 32.9005 35.2082Z" fill="#A12C66"/>
<path d="M34.3401 25.483C37.8391 27.1583 39.0566 29.2977 41.8551 29.2097C44.6537 29.1216 45.7409 27.7691 46.8668 25.9609C46.4074 24.9699 45.1661 27.9493 42.4267 27.9576C39.6873 27.9659 36.1035 24.3068 34.3401 25.483Z" fill="#8DAEF7"/>
</g>
<path d="M126.955 25.114L126.949 22.858L124.597 22.8652L124.593 21.5052L126.945 21.498L126.937 19.162L128.329 19.1578L128.337 21.4938L130.689 21.4867L130.693 22.8467L128.341 22.8538L128.347 25.1098L126.955 25.114Z" fill="#263238"/>
<path d="M142.374 28.6222L142.366 25.9182L137.23 25.9338L137.226 24.6858L142.788 17.4529L143.748 17.45L143.77 24.634L145.178 24.6297L145.182 25.9097L143.774 25.914L143.782 28.618L142.374 28.6222ZM138.682 24.6494L142.506 24.6378L142.491 19.6298L138.682 24.6494ZM154.715 21.8648C154.718 22.8034 154.545 23.6413 154.195 24.3784C153.845 25.1048 153.367 25.6769 152.76 26.0947C152.153 26.5126 151.461 26.7227 150.682 26.725C149.903 26.7274 149.209 26.5215 148.6 26.1073C147.991 25.6932 147.509 25.124 147.155 24.3997C146.801 23.6648 146.622 22.828 146.619 21.8893C146.616 20.9507 146.79 20.1181 147.14 19.3917C147.49 18.6547 147.968 18.0772 148.575 17.6594C149.181 17.2309 149.874 17.0154 150.653 17.0131C151.431 17.0107 152.125 17.2219 152.735 17.6468C153.344 18.0609 153.826 18.6355 154.18 19.3704C154.534 20.0947 154.712 20.9261 154.715 21.8648ZM153.291 21.8691C153.289 21.1651 153.175 20.5468 152.95 20.0141C152.724 19.4815 152.413 19.0664 152.018 18.7689C151.622 18.4715 151.169 18.3235 150.657 18.3251C150.134 18.3267 149.676 18.4774 149.282 18.7772C148.888 19.0771 148.58 19.494 148.358 20.028C148.135 20.5621 148.025 21.1811 148.027 21.8851C148.029 22.5891 148.143 23.2074 148.369 23.74C148.595 24.262 148.905 24.6717 149.301 24.9692C149.696 25.2667 150.155 25.4146 150.678 25.413C151.19 25.4115 151.643 25.2608 152.037 24.9609C152.43 24.6611 152.739 24.2494 152.961 23.7261C153.183 23.1921 153.293 22.5731 153.291 21.8691Z" fill="#263238"/>
<path d="M161.625 25.6718C161.019 25.6736 160.449 25.5774 159.916 25.383C159.384 25.1793 158.926 24.8773 158.542 24.4771L159.015 23.6077C159.436 23.9984 159.857 24.2771 160.278 24.4439C160.698 24.6106 161.128 24.6933 161.566 24.692C162.07 24.6904 162.481 24.5959 162.798 24.4082C163.114 24.2113 163.272 23.9261 163.271 23.5528C163.27 23.2821 163.186 23.0817 163.017 22.9516C162.858 22.8214 162.629 22.7147 162.33 22.6316C162.031 22.5392 161.676 22.4376 161.265 22.3269C160.761 22.1791 160.336 22.0217 159.99 21.8547C159.644 21.6878 159.382 21.4786 159.204 21.2271C159.026 20.9757 158.936 20.6586 158.935 20.2759C158.934 19.8093 159.054 19.4169 159.295 19.0988C159.537 18.7714 159.868 18.5231 160.287 18.3538C160.716 18.1845 161.201 18.099 161.742 18.0974C162.284 18.0958 162.774 18.1783 163.213 18.3449C163.652 18.5116 164.031 18.7578 164.349 19.0835L163.792 19.9392C163.502 19.6414 163.184 19.423 162.838 19.2841C162.492 19.1358 162.105 19.0623 161.675 19.0636C161.423 19.0644 161.176 19.0978 160.934 19.1639C160.691 19.2206 160.491 19.3285 160.333 19.4877C160.174 19.6375 160.096 19.8524 160.097 20.1324C160.097 20.3657 160.159 20.5522 160.28 20.6919C160.411 20.8221 160.598 20.9336 160.841 21.0262C161.094 21.1187 161.397 21.2205 161.752 21.3314C162.303 21.4884 162.78 21.6456 163.182 21.8031C163.593 21.9605 163.911 22.1648 164.136 22.4162C164.36 22.6675 164.473 23.0171 164.475 23.4651C164.477 24.1558 164.217 24.6979 163.696 25.0915C163.174 25.4758 162.484 25.6692 161.625 25.6718ZM169.734 25.1432C169.631 25.1902 169.491 25.2513 169.314 25.3265C169.137 25.4017 168.932 25.4676 168.699 25.5243C168.466 25.5811 168.218 25.6098 167.957 25.6106C167.658 25.6115 167.383 25.561 167.131 25.4591C166.878 25.3479 166.677 25.1805 166.527 24.9569C166.377 24.724 166.302 24.4349 166.301 24.0896L166.286 19.1756L165.292 19.1786L165.289 18.2127L166.283 18.2096L166.275 15.7737L167.507 15.7699L167.515 18.2059L169.153 18.2009L169.156 19.1669L167.518 19.1719L167.531 23.7079C167.551 23.9692 167.64 24.1649 167.799 24.2951C167.958 24.4159 168.145 24.476 168.36 24.4754C168.602 24.4746 168.826 24.432 169.031 24.3473C169.236 24.2627 169.372 24.2016 169.437 24.1641L169.734 25.1432ZM170.798 22.578L170.785 18.196L172.017 18.1923L172.029 22.3362C172.031 23.0829 172.164 23.6425 172.426 24.015C172.689 24.3876 173.077 24.5731 173.59 24.5715C173.926 24.5705 174.248 24.4995 174.555 24.3586C174.872 24.2083 175.156 23.9974 175.407 23.726C175.659 23.4546 175.854 23.132 175.992 22.7582L175.979 18.1802L177.211 18.1765L177.228 24.0845C177.229 24.2338 177.257 24.3457 177.313 24.4202C177.379 24.4854 177.482 24.5224 177.622 24.5313L177.625 25.4833C177.485 25.5024 177.373 25.512 177.289 25.5123C177.214 25.5219 177.139 25.5268 177.065 25.527C176.831 25.5277 176.631 25.4583 176.462 25.3188C176.294 25.17 176.205 24.9883 176.195 24.7736L176.164 23.9197C175.848 24.462 175.42 24.8833 174.88 25.1836C174.349 25.4839 173.766 25.635 173.131 25.6369C172.366 25.6392 171.786 25.3843 171.393 24.8722C170.999 24.3507 170.801 23.586 170.798 22.578ZM178.798 21.8397C178.796 21.149 178.934 20.5186 179.212 19.9484C179.5 19.3689 179.89 18.9057 180.384 18.5589C180.887 18.212 181.46 18.0376 182.104 18.0357C182.692 18.0339 183.22 18.1863 183.688 18.4929C184.155 18.7995 184.52 19.1717 184.783 19.6096L184.77 15.2416L186.002 15.2378L186.029 24.0578C186.029 24.2071 186.057 24.319 186.114 24.3935C186.179 24.4587 186.282 24.4957 186.422 24.5046L186.425 25.4566C186.192 25.4946 186.01 25.5139 185.879 25.5143C185.636 25.515 185.421 25.4316 185.234 25.2642C185.056 25.0967 184.967 24.9104 184.967 24.705L184.965 24.089C184.677 24.5566 184.291 24.9264 183.806 25.1985C183.322 25.4707 182.818 25.6075 182.295 25.6091C181.791 25.6107 181.324 25.5141 180.894 25.3194C180.474 25.1153 180.104 24.8364 179.786 24.4827C179.477 24.129 179.233 23.7284 179.054 23.2809C178.885 22.8241 178.799 22.3437 178.798 21.8397ZM184.793 22.8995L184.787 20.7995C184.674 20.4826 184.491 20.1984 184.238 19.9472C183.985 19.6866 183.7 19.4822 183.382 19.3338C183.074 19.1761 182.766 19.0977 182.458 19.0986C182.094 19.0997 181.762 19.18 181.464 19.3396C181.175 19.4898 180.924 19.6959 180.71 19.9579C180.506 20.2105 180.348 20.5003 180.237 20.8273C180.126 21.1543 180.071 21.4952 180.072 21.8498C180.073 22.2138 180.135 22.559 180.257 22.8853C180.389 23.2116 180.567 23.5004 180.792 23.7517C181.026 24.003 181.292 24.1982 181.591 24.3373C181.9 24.4763 182.231 24.5453 182.586 24.5442C182.81 24.5436 183.039 24.5009 183.272 24.4162C183.514 24.3314 183.742 24.2141 183.957 24.0641C184.171 23.9141 184.352 23.7409 184.501 23.5444C184.65 23.3386 184.747 23.1237 184.793 22.8995ZM191.324 25.5817C190.773 25.5834 190.269 25.4869 189.811 25.2923C189.362 25.0884 188.97 24.8142 188.633 24.4699C188.305 24.1162 188.047 23.711 187.859 23.2542C187.68 22.7975 187.59 22.3124 187.588 21.7991C187.586 21.1084 187.743 20.4779 188.059 19.9076C188.374 19.3373 188.812 18.8787 189.371 18.5316C189.939 18.1846 190.587 18.0099 191.315 18.0077C192.052 18.0055 192.692 18.1809 193.235 18.5339C193.786 18.8776 194.212 19.3336 194.513 19.9021C194.822 20.4611 194.978 21.0673 194.98 21.7206C194.981 21.814 194.976 21.9073 194.967 22.0007C194.967 22.0847 194.963 22.15 194.954 22.1967L188.892 22.2151C188.93 22.691 189.062 23.1153 189.288 23.4879C189.522 23.8512 189.822 24.1396 190.186 24.3532C190.551 24.5574 190.943 24.6589 191.363 24.6576C191.811 24.6563 192.231 24.543 192.622 24.3178C193.023 24.0926 193.297 23.7978 193.445 23.4333L194.51 23.7241C194.353 24.0792 194.116 24.3973 193.799 24.6782C193.492 24.9592 193.124 25.1796 192.695 25.3396C192.276 25.4995 191.819 25.5802 191.324 25.5817ZM188.847 21.3612L193.831 21.3461C193.792 20.8702 193.656 20.4507 193.421 20.0874C193.187 19.7241 192.887 19.4403 192.523 19.2361C192.158 19.0319 191.756 18.9304 191.318 18.9317C190.888 18.933 190.492 19.0369 190.129 19.2433C189.765 19.4498 189.468 19.7353 189.235 20.1001C189.012 20.4647 188.883 20.8851 188.847 21.3612ZM202.703 25.4072L201.471 25.411L201.459 21.323C201.456 20.5483 201.333 19.984 201.089 19.6301C200.855 19.2668 200.495 19.0859 200.01 19.0874C199.674 19.0884 199.338 19.1734 199.003 19.3424C198.676 19.5114 198.383 19.741 198.123 20.0311C197.871 20.3119 197.69 20.6391 197.58 21.0128L197.593 25.4227L196.361 25.4265L196.339 18.1185L197.459 18.1151L197.464 19.6831C197.659 19.3372 197.91 19.0378 198.217 18.7848C198.524 18.5319 198.873 18.3348 199.265 18.1936C199.657 18.0524 200.067 17.9812 200.496 17.9799C200.916 17.9786 201.267 18.0569 201.547 18.2147C201.837 18.3632 202.062 18.5772 202.221 18.8567C202.39 19.1268 202.508 19.4485 202.574 19.8216C202.65 20.1947 202.688 20.6006 202.69 21.0393L202.703 25.4072ZM208.329 25.0262C208.227 25.0732 208.087 25.1343 207.91 25.2095C207.733 25.2847 207.528 25.3506 207.294 25.4073C207.061 25.464 206.814 25.4928 206.553 25.4936C206.254 25.4945 205.979 25.444 205.726 25.3421C205.474 25.2308 205.273 25.0635 205.123 24.8399C204.973 24.607 204.897 24.3179 204.896 23.9726L204.881 19.0586L203.887 19.0616L203.884 18.0956L204.878 18.0926L204.871 15.6566L206.103 15.6529L206.11 18.0889L207.748 18.0839L207.751 19.0499L206.113 19.0549L206.127 23.5909C206.146 23.8521 206.236 24.0479 206.395 24.178C206.554 24.2989 206.741 24.359 206.955 24.3583C207.198 24.3576 207.422 24.3149 207.627 24.2303C207.832 24.1457 207.967 24.0846 208.032 24.0471L208.329 25.0262ZM211.979 25.5191C211.372 25.521 210.802 25.4247 210.27 25.2303C209.737 25.0266 209.279 24.7246 208.895 24.3245L209.368 23.455C209.79 23.8458 210.21 24.1245 210.631 24.2912C211.051 24.4579 211.481 24.5406 211.92 24.5393C212.424 24.5378 212.834 24.4432 213.151 24.2556C213.468 24.0586 213.625 23.7735 213.624 23.4001C213.623 23.1295 213.539 22.929 213.37 22.7989C213.211 22.6687 212.982 22.5621 212.683 22.479C212.384 22.3865 212.03 22.285 211.619 22.1742C211.114 22.0264 210.689 21.869 210.343 21.7021C209.997 21.5351 209.735 21.3259 209.557 21.0744C209.379 20.823 209.289 20.5059 209.288 20.1233C209.287 19.6566 209.407 19.2642 209.649 18.9462C209.89 18.6188 210.221 18.3704 210.64 18.2011C211.069 18.0318 211.554 17.9464 212.096 17.9447C212.637 17.9431 213.127 18.0256 213.566 18.1923C214.006 18.3589 214.384 18.6051 214.703 18.9308L214.145 19.7865C213.855 19.4887 213.537 19.2704 213.191 19.1314C212.846 18.9831 212.458 18.9096 212.029 18.9109C211.777 18.9117 211.529 18.9451 211.287 19.0112C211.044 19.0679 210.844 19.1759 210.686 19.335C210.528 19.4848 210.449 19.6997 210.45 19.9797C210.451 20.2131 210.512 20.3995 210.634 20.5392C210.765 20.6694 210.952 20.7809 211.195 20.8735C211.447 20.966 211.75 21.0678 212.105 21.1787C212.657 21.3357 213.133 21.4929 213.535 21.6504C213.946 21.8078 214.264 22.0122 214.489 22.2635C214.714 22.5148 214.827 22.8645 214.828 23.3125C214.83 24.0031 214.57 24.5453 214.049 24.9388C213.527 25.3231 212.837 25.5165 211.979 25.5191Z" fill="#263238"/>
<defs>
<linearGradient id="paint0_linear_1_454" x1="25.099" y1="36.1084" x2="25.099" y2="15.2001" gradientUnits="userSpaceOnUse">
<stop stop-color="#7196FF"/>
<stop offset="1" stop-color="#2A5EE8"/>
</linearGradient>
<clipPath id="clip0_1_454">
<rect x="89.3105" y="5.0885" width="29.1892" height="29.1892" rx="14.5946" transform="rotate(-0.173721 89.3105 5.0885)" fill="white"/>
</clipPath>
<clipPath id="clip1_1_454">
<rect x="73.7432" y="5.13574" width="29.1892" height="29.1892" rx="14.5946" transform="rotate(-0.173721 73.7432 5.13574)" fill="white"/>
</clipPath>
<clipPath id="clip2_1_454">
<rect x="52.3408" y="6.17358" width="29.1892" height="29.1892" rx="14.5946" transform="rotate(-0.173721 52.3408 6.17358)" fill="white"/>
</clipPath>
<clipPath id="clip3_1_454">
<rect x="31.4233" y="6.72339" width="29.1892" height="29.1892" rx="14.5946" transform="rotate(-0.173721 31.4233 6.72339)" fill="white"/>
</clipPath>
<clipPath id="clip4_1_454">
<rect x="10.5044" y="6.78687" width="29.1892" height="29.1892" rx="14.5946" transform="rotate(-0.173721 10.5044 6.78687)" fill="white"/>
</clipPath>
</defs>
</svg>
