<svg width="226" height="41" viewBox="0 0 226 41" fill="none" xmlns="http://www.w3.org/2000/svg">
<rect x="0.5" width="225.001" height="40.9759" rx="20.4879" fill="#FAFAFA"/>
<g clip-path="url(#clip0_1_535)">
<rect x="89.3103" y="5.0885" width="29.1892" height="29.1892" rx="14.5946" transform="rotate(-0.173721 89.3103 5.0885)" fill="#FFE75C"/>
<path d="M111.805 34.6926C111.91 35.114 111.918 35.5541 111.828 35.979C111.738 36.4042 111.552 36.8031 111.285 37.146C111.018 37.4886 110.677 37.7664 110.287 37.9577C109.897 38.149 109.469 38.2491 109.034 38.2504L103.098 38.2684L100.321 39.8336L100.321 39.7506C99.0545 39.7544 98.3269 39.3415 98.8733 34.6903C98.6202 33.3834 97.4422 28.2392 96.7871 24.4012C96.1953 20.8951 97.4991 19.6042 101.105 17.5591C102.627 12.988 106.613 13.2457 107.389 15.9833C108.165 18.7208 110.733 30.3577 111.805 34.6926Z" fill="#66BCFF"/>
<path d="M111.804 34.6925C111.258 32.4524 110.291 28.304 109.386 24.4252L104.736 24.0864L101.153 26.6296L99.0854 29.4173L98.0312 30.8527C98.4102 32.6367 98.7258 34.0887 98.8522 34.711C98.3059 39.3622 99.0336 39.7751 100.3 39.7713L103.969 38.2034L112.478 37.5757C112.267 36.6422 112.036 35.6674 111.804 34.6925Z" fill="#EB459F"/>
<path d="M102.285 32.3847C102.542 30.8355 102.402 29.5216 101.972 29.4502C101.542 29.3789 100.986 30.577 100.728 32.1265C100.471 33.6757 100.611 34.9894 101.041 35.0607C101.47 35.1321 102.027 33.934 102.285 32.3847Z" fill="black"/>
<path d="M99.5601 28.5441C99.7666 28.1698 99.994 27.7955 100.221 27.4627C102.557 24.0723 104.754 23.1523 106.871 23.1459L109.507 23.1379C109.546 23.1388 109.585 23.1491 109.62 23.1677C109.654 23.1862 109.684 23.2129 109.706 23.2452C109.729 23.2775 109.743 23.3147 109.748 23.3537C109.754 23.3927 109.75 23.4323 109.737 23.4693L109.386 24.4252C105.339 24.4375 103.906 24.3173 100.554 27.8561L99.0856 29.4173L99.5601 28.5441Z" fill="#D11583"/>
<path d="M100.555 27.9807C99.1648 28.234 98.0669 28.9638 97.4481 30.2526C97.2723 30.6102 97.018 30.9231 96.7036 31.1682L92.9757 33.8986C92.5567 34.198 92.2654 34.6437 92.1592 35.1476C92.0532 35.6514 92.1401 36.1767 92.4027 36.6195C92.5859 36.9303 92.8476 37.1873 93.1614 37.3649C93.4753 37.5424 93.8304 37.6344 94.1909 37.6312L95.7476 37.6265C98.9802 35.8108 100.471 34.5816 101.237 33.8736C102.003 33.1655 102.85 31.8968 102.7 30.4443C102.55 28.9917 102.131 27.6853 100.555 27.9807Z" fill="white"/>
<path d="M101.685 17.2461C101.184 16.4173 100.516 15.3192 100.266 14.8011C100.015 14.2829 99.4134 14.4093 100.271 16.7314C98.1934 15.949 97.7584 16.2409 97.6555 16.5318C97.5526 16.8227 98.0097 16.9666 98.883 17.4621C99.7563 17.9576 100.692 18.5568 100.692 18.5568L101.685 17.2461Z" fill="#66BCFF"/>
<path d="M103.843 17.3018C104.195 16.8648 104.318 16.387 104.11 16.2216C103.902 16.0562 103.674 16.1399 103.364 16.556C103.23 16.7251 103.085 16.8852 102.929 17.0347C102.577 17.3679 102.661 17.6167 102.828 17.7615C102.994 17.9063 103.492 17.7387 103.843 17.3018Z" fill="black"/>
<path d="M107.368 16.0041C107.368 16.0041 104.895 14.8907 103.834 14.209C102.773 13.5272 102.231 12.5118 102.707 12.2405C103.184 11.9692 104.099 12.6099 104.745 13.4382C104.72 11.9645 104.968 11.6525 105.362 11.6305C105.757 11.6085 105.8 12.1896 105.823 13.0198C105.846 13.85 105.993 14.1817 106.617 14.7402C106.991 15.0747 107.253 15.5158 107.368 16.0041Z" fill="#3442D9"/>
<path d="M98.3187 22.9228C97.7375 22.9245 97.2378 22.4279 97.6918 21.5547C98.1458 20.6815 99.6374 19.8052 100.363 19.4709C101.088 19.1366 101.422 19.4677 101.443 19.7167C101.465 19.9657 101.362 20.3397 100.845 21.0055C100.328 21.6713 99.3772 22.9195 98.3187 22.9228Z" fill="white"/>
<path d="M98.7749 22.8592L98.4225 22.9225L97.9192 21.222L98.2088 20.9098L98.7749 22.8592Z" fill="#8CD9FF"/>
<path d="M100.059 21.9419L99.7695 22.2334L99.1818 20.1387L99.4925 19.9302L100.059 21.9419Z" fill="#8CD9FF"/>
<path d="M101.217 20.4855L100.948 20.8599L100.529 19.4082L100.881 19.3449L101.217 20.4855Z" fill="#8CD9FF"/>
<path d="M100.756 19.1584C101.141 19.3408 101.537 19.4992 101.941 19.6323" stroke="black" stroke-linecap="round" stroke-linejoin="round"/>
<path d="M110.038 27.1632C109.64 26.8493 109.153 26.6691 108.646 26.6485C107.567 26.6517 106.968 27.7122 106.764 28.7299C106.731 28.8931 106.643 29.0399 106.515 29.1462C106.387 29.2524 106.226 29.3112 106.06 29.3132L105.914 29.3136C105.821 29.2967 105.731 29.261 105.652 29.2086C105.572 29.1563 105.504 29.0884 105.452 29.0091C105.399 28.9297 105.363 28.8406 105.346 28.747C105.328 28.6533 105.33 28.5572 105.351 28.4643C105.74 26.4912 107.023 25.2212 108.642 25.2163C108.91 25.2188 109.169 25.3122 109.377 25.4814C109.585 25.6503 109.729 25.8851 109.786 26.1468L110.038 27.1632Z" fill="white"/>
<path d="M111.805 34.6925C111.851 34.878 111.859 35.071 111.829 35.2595C111.798 35.4483 111.73 35.6289 111.627 35.7903C111.525 35.9517 111.391 36.0905 111.233 36.1985C111.075 36.3067 110.897 36.3816 110.71 36.4187L110.191 36.4618C109.008 36.4653 107.781 35.7633 106.823 34.5416C106.765 34.4654 106.723 34.3787 106.699 34.2864C106.675 34.1939 106.67 34.0978 106.683 34.0034C106.696 33.9089 106.728 33.8179 106.776 33.7357C106.825 33.6534 106.889 33.5816 106.965 33.5241C107.04 33.4638 107.127 33.4196 107.219 33.394C107.312 33.3686 107.409 33.3623 107.504 33.3755C107.6 33.3889 107.691 33.4214 107.773 33.4716C107.856 33.5216 107.927 33.5878 107.982 33.6663C108.649 34.5153 109.46 35.0317 110.187 35.0295C110.913 35.0273 111.348 34.6109 111.658 34.0703C111.7 34.2985 111.763 34.5058 111.805 34.6925Z" fill="#2331B5"/>
<path d="M110.396 28.7604C110.249 28.7617 110.107 28.8084 109.988 28.8943C109.869 28.9802 109.78 29.1011 109.733 29.2398L108.868 31.588C108.793 31.8085 108.795 32.0482 108.875 32.2671C108.955 32.4861 109.108 32.6708 109.308 32.7906C109.398 32.8457 109.5 32.8801 109.606 32.8905C109.711 32.9012 109.817 32.8878 109.917 32.8516C110.017 32.8154 110.107 32.7572 110.181 32.6814C110.255 32.6057 110.311 32.5142 110.345 32.4138L110.901 30.8969C110.753 30.2123 110.585 29.5071 110.396 28.7604Z" fill="#5865F2"/>
<path d="M109.308 32.7905C109.108 32.6707 108.955 32.486 108.875 32.267C108.795 32.0481 108.793 31.8084 108.868 31.5879L109.115 30.9437C109.157 30.8313 109.222 30.7291 109.307 30.6442C109.391 30.5595 109.493 30.494 109.605 30.4521C109.718 30.4105 109.838 30.3935 109.957 30.4025C110.077 30.4115 110.193 30.4462 110.297 30.5042C110.468 30.6035 110.6 30.759 110.668 30.9446C110.737 31.1299 110.739 31.3333 110.674 31.5201L110.345 32.4137C110.311 32.5141 110.255 32.6055 110.181 32.6813C110.107 32.7571 110.017 32.8153 109.917 32.8515C109.817 32.8877 109.711 32.9011 109.605 32.8904C109.5 32.88 109.398 32.8458 109.308 32.7905Z" fill="#FFE75C"/>
</g>
<g clip-path="url(#clip1_1_535)">
<rect x="73.7429" y="5.13574" width="29.1892" height="29.1892" rx="14.5946" transform="rotate(-0.173721 73.7429 5.13574)" fill="#3442D9"/>
<path d="M80.2533 16.5869C79.3937 13.7666 78.933 12.4188 80.4665 11.5839C81.9999 10.7489 86.6719 11.2952 88.8529 11.8075C91.0339 12.3198 91.3469 12.8586 89.9212 15.0008L80.2533 16.5869Z" fill="#FFF4B3"/>
<path d="M79.3339 41.9754C78.9763 33.5907 79.1628 26.6159 79.4213 22.8996C78.0279 21.9905 77.3823 21.2868 77.1112 20.8932C77.055 20.8174 77.026 20.7247 77.0297 20.6303C77.0331 20.536 77.0686 20.4456 77.1304 20.3742C79.3223 17.6069 81.2038 15.1934 83.1723 14.0666C85.1408 12.9397 87.8383 12.641 92.1479 16.9038C92.1891 16.9584 92.2097 17.0259 92.2061 17.0942C92.2026 17.1627 92.175 17.2275 92.1282 17.2775C91.788 17.6173 91.4287 17.9372 91.0518 18.2356C91.9283 19.7897 93.2016 22.1521 93.2016 22.1521L94.1979 22.1491C94.8364 22.1471 95.4497 22.3989 95.9025 22.8492C96.3556 23.2993 96.6111 23.9109 96.613 24.5495C96.6396 26.4799 96.19 28.806 95.3065 31.7976C99.3016 35.0236 98.3469 41.897 98.3469 41.897L79.3339 41.9754Z" fill="#29CC7A"/>
<path d="M95.3067 31.7975C95.4299 31.3613 95.5532 30.9665 95.6558 30.5511L92.5268 32.3041C92.5268 32.3041 87.5558 28.9773 79.2261 26.9269C79.0925 30.7881 79.0876 36.0188 79.334 41.9753L98.3471 41.9177C98.3471 41.9177 99.3018 35.0235 95.3067 31.7975Z" fill="#8CD9FF"/>
<path d="M96.0977 32.5632C95.8549 32.2873 95.5903 32.0313 95.3067 31.7976C95.4299 31.3613 95.5532 30.9666 95.6557 30.5511L92.5268 32.3042C92.5268 32.3042 87.5558 28.9774 79.2261 26.927C79.2068 27.4045 79.1876 27.9234 79.1892 28.4424C85.5695 31.0591 89.008 35.5737 89.4217 41.9448L94.1335 41.9305C94.9527 38.2748 95.6072 35.0763 96.0977 32.5632Z" fill="#BAE8FF"/>
<path d="M81.7303 24.4908L81.8134 24.4906C81.8548 24.4489 81.8962 24.428 81.9168 24.3657L83.7049 18.5276C83.7169 18.5031 83.7237 18.4763 83.7242 18.4489C83.7247 18.4217 83.7195 18.3945 83.7084 18.3696C83.6975 18.3445 83.6811 18.3222 83.6607 18.3042C83.6401 18.2862 83.6159 18.273 83.5896 18.2654C83.5634 18.2578 83.5358 18.256 83.5088 18.26C83.4818 18.2642 83.4561 18.2743 83.4333 18.2895C83.4107 18.3047 83.3917 18.3247 83.3775 18.3482C83.3634 18.3715 83.3546 18.3977 83.3517 18.4249L81.6253 24.076C80.8711 23.757 80.1474 23.37 79.4631 22.9202L79.4216 22.9203C79.422 23.0448 79.4016 23.1902 79.402 23.3147C80.1206 23.774 80.879 24.1677 81.6681 24.491L81.7303 24.4908Z" fill="black"/>
<path d="M89.4233 15.0854L81.9941 15.6476C90.3015 17.1999 90.6551 17.4272 89.4233 15.0854Z" fill="black"/>
<path d="M87.5826 20.49C87.8691 20.3733 87.9191 19.831 87.6941 19.2789C87.4691 18.7271 87.0545 18.3742 86.7678 18.4909C86.4811 18.6078 86.4313 19.1499 86.6563 19.702C86.8811 20.2541 87.2959 20.6069 87.5826 20.49Z" fill="black"/>
<path d="M89.7258 21.6311C90.0938 20.9309 90.0467 20.1817 89.6205 19.9578C89.1943 19.7337 88.5506 20.1199 88.1824 20.8199C87.8144 21.5201 87.8617 22.2692 88.2877 22.4934C88.7139 22.7173 89.3579 22.3313 89.7258 21.6311Z" stroke="white" stroke-miterlimit="10"/>
<path d="M92.7823 21.626C93.1503 20.926 93.1032 20.1769 92.677 19.9527C92.2508 19.7288 91.6071 20.1148 91.2391 20.815C90.8711 21.5152 90.9182 22.2644 91.3444 22.4883C91.7706 22.7122 92.4144 22.3263 92.7823 21.626Z" stroke="white" stroke-miterlimit="10"/>
<path d="M90.6792 20.3804C90.8703 20.3026 90.8499 19.8092 90.6335 19.2783C90.4173 18.7476 90.087 18.3804 89.8958 18.4584C89.7049 18.5362 89.7253 19.0295 89.9415 19.5604C90.1579 20.0911 90.4883 20.4584 90.6792 20.3804Z" fill="black"/>
<path d="M92.6732 25.8068C91.0706 25.8169 89.5138 25.2716 88.268 24.2634C86.9779 23.2088 87.4964 23.0826 88.3059 23.0594C89.1153 23.0362 92.9973 23.1697 94.1186 23.3324C95.24 23.4951 95.4543 25.7154 92.6732 25.8068Z" fill="#912869"/>
<path d="M92.6732 25.8068C91.0706 25.8169 89.5138 25.2716 88.268 24.2634C86.9779 23.2088 87.4964 23.0826 88.3059 23.0594C89.1153 23.0362 92.9973 23.1697 94.1186 23.3324C95.24 23.4951 95.4543 25.7154 92.6732 25.8068Z" fill="#611B46"/>
<path d="M92.5971 28.1319L92.5117 27.3641C93.0979 27.3156 93.6689 27.1516 94.1915 26.8816" stroke="black" stroke-linecap="round" stroke-linejoin="round"/>
<path d="M93.4408 25.7007C92.3167 24.6248 90.799 23.8199 87.9974 24.0152C90.4119 26.2288 92.9223 25.8476 93.4408 25.7007Z" fill="#EB459F"/>
<path d="M89.8562 20.896L91.1224 20.8922" stroke="white" stroke-miterlimit="10"/>
<path d="M87.9473 21.1508L82.5855 18.9876C82.473 18.9443 82.3518 18.9291 82.2322 18.9428C82.1125 18.9566 81.9981 18.9991 81.8982 19.0667C81.7986 19.1342 81.7167 19.225 81.6597 19.331C81.6025 19.437 81.572 19.5552 81.5705 19.6756C81.5684 19.8174 81.6091 19.9563 81.6873 20.0746C81.7653 20.1927 81.8772 20.2847 82.0084 20.3385L82.3617 20.5035" stroke="white" stroke-miterlimit="10" stroke-linecap="round"/>
<path d="M86.8181 18.4351C87.2393 18.4446 87.6597 18.3873 88.063 18.2653" stroke="black" stroke-miterlimit="10" stroke-linecap="round"/>
<path d="M89.9317 18.4257C90.1972 18.4317 90.4604 18.3741 90.6991 18.2573" stroke="black" stroke-miterlimit="10" stroke-linecap="round"/>
<path d="M80.9569 15.8583C88.3667 15.732 90.8757 14.8941 92.9906 14.1197C95.1054 13.3453 94.8961 12.744 93.2772 12.8112C91.6584 12.8783 86.1228 15.0123 80.9569 15.8583Z" fill="#FFF4B3"/>
<path d="M80.9568 15.8583L83.4885 15.643L89.5666 14.4207L88.0468 12.9308L80.8027 12.9528L80.9568 15.8583Z" fill="#FFF4B3"/>
<path d="M93.2472 23.4802L91.7939 23.4016C91.9626 24.2729 92.3792 24.7283 92.7316 24.5819C93.084 24.4355 93.2062 23.6672 93.2472 23.4802Z" fill="white"/>
<path d="M88.7632 23.307C88.953 24.3028 89.3282 24.8205 89.6806 24.6534C90.0329 24.4863 90.1134 23.6558 90.1747 23.3235L88.7632 23.307Z" fill="white"/>
<path d="M90.4148 13.4426C87.2182 14.3094 83.9776 15.0052 80.7069 15.527" stroke="#FFC619" stroke-width="2" stroke-miterlimit="10" stroke-linecap="round"/>
</g>
<g clip-path="url(#clip2_1_535)">
<rect x="52.3406" y="6.17358" width="29.1892" height="29.1892" rx="14.5946" transform="rotate(-0.173721 52.3406 6.17358)" fill="#7196FF"/>
<path d="M63.3167 31.0908L62.6775 31.7285L67.3477 36.3314L67.9871 35.6935L63.3167 31.0908Z" fill="#2E3338"/>
<path d="M66.228 31.0889L65.5886 31.7266L70.2588 36.3293L70.8982 35.6916L66.228 31.0889Z" fill="#2E3338"/>
<path d="M71.4708 30.274C72.673 29.0691 73.4144 27.4868 73.5676 25.799C73.7208 24.111 73.2762 22.423 72.3104 21.0249L69.2806 16.6356L65.7121 16.6464L65.7291 22.2568C65.7306 22.7442 65.5367 23.2122 65.1902 23.5579C64.8437 23.9035 64.3729 24.0985 63.8813 24.1L58.1442 24.1174L58.148 25.3881C58.1537 27.2564 58.9063 29.046 60.2408 30.3649C61.5752 31.6838 63.3828 32.4242 65.267 32.4236L66.3119 32.4204C68.2478 32.3984 70.0987 31.6284 71.4708 30.274Z" fill="#FFD836"/>
<path d="M69.2744 14.5833C70.2208 14.5804 71.1296 14.9505 71.8008 15.612C72.472 16.2735 72.8507 17.1723 72.8536 18.1108L72.8564 19.0295L65.7193 19.0512L65.7165 18.1129C65.7189 17.1778 66.0945 16.2817 66.7612 15.6203C67.4278 14.959 68.3314 14.5861 69.2744 14.5833Z" fill="#FFD836"/>
<path d="M73.8973 17.7165C74.0696 17.8844 74.2058 18.0851 74.2979 18.3066C74.3901 18.528 74.4363 18.7656 74.4335 19.0051L71.0227 19.0155C70.896 19.0133 70.7725 18.9745 70.6678 18.9038C70.5629 18.8331 70.4812 18.7335 70.4327 18.6174C70.3842 18.5012 70.3709 18.3735 70.3946 18.25C70.4183 18.1265 70.4778 18.0125 70.5659 17.9221L71.254 17.2358L71.251 16.2584C71.2505 16.1321 71.2993 16.0105 71.3872 15.9191C71.4752 15.8278 71.5954 15.7737 71.7226 15.7683C71.8526 15.7748 71.9771 15.8224 72.0779 15.904L73.8973 17.7165Z" fill="#FF9A15"/>
<path d="M69.2744 14.5831L68.2294 14.5862C66.9433 14.5885 65.7085 14.0863 64.7947 13.1891L64.2803 12.6238L64.2813 12.9757C64.2848 14.1163 64.7451 15.2088 65.561 16.0128C66.3768 16.8169 67.4814 17.2667 68.6318 17.2632L69.2627 17.2613L69.2744 14.5831Z" fill="#FFD836"/>
<path d="M64.2122 16.2014L67.0708 16.1927L67.0794 19.0273L64.2122 16.2014Z" fill="#FFD836"/>
<path d="M59.8086 26.8493C60.3451 27.9769 61.2992 28.8561 62.4725 29.3043C63.6459 29.7525 64.9483 29.7353 66.1092 29.2561C67.2701 28.7771 68.2003 27.8729 68.7064 26.7315C69.2125 25.5901 69.2557 24.2993 68.827 23.1273L59.8086 26.8493Z" fill="#FF9A15"/>
<path d="M54.9802 20.9993L57.2151 23.2992C57.5084 23.5846 57.7419 23.9248 57.9021 24.3001C58.0624 24.6754 58.1461 25.0784 58.1484 25.4858L59.7453 25.481L59.742 24.3669C59.7382 23.7441 59.5264 23.1403 59.1396 22.6498C58.7528 22.1593 58.213 21.8098 57.6044 21.656L54.9802 20.9993Z" fill="#FFD836"/>
<path d="M59.1912 24.8181L59.0143 24.9945C58.9417 25.064 58.8501 25.1107 58.7509 25.1287C58.6517 25.1468 58.5493 25.1355 58.4566 25.0961C58.3638 25.0567 58.2849 24.9911 58.2296 24.9074C58.1743 24.8238 58.1451 24.7258 58.1457 24.6257L58.1301 19.4845L59.1782 20.5175C59.7483 21.0896 60.069 21.8607 60.0715 22.665C60.0739 23.4694 59.7578 24.2425 59.1912 24.8181Z" fill="#FFD836"/>
<path d="M69.4992 17.2606C69.7497 17.2599 69.9521 17.058 69.9513 16.8097C69.9506 16.5613 69.7469 16.3607 69.4965 16.3614C69.246 16.3622 69.0436 16.5641 69.0443 16.8124C69.0451 17.0607 69.2487 17.2614 69.4992 17.2606Z" fill="#202225"/>
</g>
<g clip-path="url(#clip3_1_535)">
<rect x="31.4233" y="6.72339" width="29.1892" height="29.1892" rx="14.5946" transform="rotate(-0.173721 31.4233 6.72339)" fill="#FF78B9"/>
<path d="M55.2228 40.9592C56.2084 38.8764 53.5384 35.5464 49.2588 33.521C44.9794 31.4957 40.7111 31.5423 39.7255 33.6251C38.7398 35.7077 41.4099 39.0379 45.6895 41.0633C49.9688 43.0884 54.2371 43.0418 55.2228 40.9592Z" fill="black"/>
<path d="M55.7417 29.4416C54.4731 28.6567 54.4109 28.6776 53.7013 27.4136C52.9918 26.1496 52.0974 25.5296 51.0591 25.3875L52.3742 34.7033C55.075 35.4839 56.7314 34.1089 57.1009 32.7586C57.4704 31.4083 57.031 30.2264 55.7417 29.4416Z" fill="#3442D9"/>
<path d="M54.4794 30.67C54.1219 29.1558 53.1825 27.3943 52.0784 26.0692C51.6828 25.5905 51.4015 25.0278 51.2558 24.424C51.1101 23.8202 51.1038 23.1912 51.2375 22.5847L51.6879 20.5076C52.0046 19.066 51.8288 17.5599 51.189 16.2298C50.549 14.8998 49.4817 13.8226 48.1577 13.1704C47.398 12.7992 46.5716 12.5829 45.7273 12.5343C44.1384 12.4227 42.5687 12.9347 41.3511 13.9615C40.1335 14.9882 39.3639 16.449 39.2055 18.0339C39.1719 18.3024 39.1588 18.573 39.1665 18.8435L39.1692 19.7361L39.222 23.4721C39.2722 25.1506 38.9214 26.8165 38.1989 28.3323C37.8989 28.9337 37.6711 29.5685 37.5197 30.2232L47.7024 40.9859C52.5362 40.1618 55.5526 35.4823 54.4794 30.67Z" fill="#3442D9"/>
<path d="M47.723 40.9859C52.5361 40.1618 55.5524 35.4823 54.4792 30.67C54.1427 29.2388 53.2867 27.5808 52.2657 26.297" stroke="black" stroke-miterlimit="10" stroke-linecap="round"/>
<path d="M51.2421 30.9912C52.1921 29.4108 52.5664 29.6173 54.2698 30.0687C55.6408 30.4175 57.2268 33.2148 55.1347 34.6326C53.0425 36.0504 48.7641 35.2124 51.2421 30.9912Z" fill="#3442D9"/>
<path d="M46.4961 26.3534C46.687 26.2065 46.7169 25.9255 46.5631 25.7255C46.4093 25.5256 46.13 25.4827 45.9393 25.6294C45.7485 25.7763 45.7185 26.0572 45.8723 26.2571C46.026 26.4571 46.3054 26.5001 46.4961 26.3534Z" fill="black"/>
<path d="M49.1113 26.5077C49.302 26.361 49.3321 26.0798 49.1783 25.88C49.0245 25.6802 48.7452 25.637 48.5543 25.7839C48.3635 25.9306 48.3334 26.2118 48.4872 26.4116C48.641 26.6114 48.9203 26.6546 49.1113 26.5077Z" fill="black"/>
<path d="M48.8406 26.1829C51.0671 28.0027 50.1577 29.3132 51.951 32.0061" stroke="white" stroke-miterlimit="10" stroke-linecap="round"/>
<path d="M46.3416 30.2796C47.7086 29.3206 48.1229 29.0495 48.6419 29.0687L49.9915 29.1891L49.6552 34.67L46.2301 34.5766L46.3416 30.2796Z" fill="#FFC619"/>
<path d="M52.9792 28.8687C53.005 28.7961 53.0132 28.7185 53.0039 28.6421C52.9945 28.5658 52.9675 28.4926 52.9252 28.4284C52.8826 28.3641 52.826 28.3106 52.7595 28.2719C52.6927 28.2333 52.6182 28.2107 52.5413 28.2058L50.2571 27.8806C50.0914 27.8634 49.9246 27.9038 49.7852 27.9949C49.6456 28.0861 49.5416 28.2223 49.4906 28.3811L48.2182 33.159C48.1927 33.2317 48.1842 33.3092 48.1935 33.3855C48.2029 33.4619 48.2299 33.5351 48.2722 33.5993C48.3148 33.6635 48.3714 33.7171 48.4381 33.7557C48.5047 33.7943 48.5793 33.8169 48.6561 33.8219L50.9403 34.1471C51.1062 34.1642 51.2728 34.1239 51.4124 34.0327C51.5518 33.9416 51.6558 33.8053 51.7068 33.6466L52.9792 28.8687Z" fill="black"/>
<path d="M52.8741 28.3916L53.1241 28.6815L52.4393 28.7458L52.8741 28.3916Z" fill="black"/>
<path d="M54.0045 31.5431C53.7124 31.0666 53.4408 30.4655 52.6516 30.3433L52.5509 31.3399L54.0045 31.5431Z" fill="#FFC619"/>
<path d="M53.2086 29.1379C53.2302 29.0654 53.2356 28.989 53.2243 28.9141C53.2131 28.8392 53.1857 28.7677 53.144 28.7045C53.1023 28.6413 53.0473 28.5881 52.9829 28.5485C52.9184 28.5088 52.8459 28.4837 52.7707 28.475L50.4657 28.1499C50.3007 28.1365 50.1356 28.1785 49.997 28.269C49.8582 28.3597 49.7533 28.4937 49.6992 28.6504L48.4268 33.4283C48.4052 33.5008 48.3998 33.5772 48.4111 33.6521C48.4223 33.727 48.4497 33.7986 48.4914 33.8617C48.5331 33.9249 48.5881 33.9783 48.6525 34.0178C48.7172 34.0574 48.7895 34.0825 48.8647 34.0912L51.1696 34.3956C51.3312 34.4217 51.4967 34.3869 51.6343 34.2985C51.7718 34.2098 51.8721 34.0738 51.9154 33.9159L53.2086 29.1379Z" fill="white"/>
<path d="M52.5085 31.0289L53.4429 31.1713C53.6323 31.1917 53.8059 31.2856 53.9267 31.4326C54.0476 31.5798 54.1057 31.7686 54.0888 31.9581C54.0843 32.0567 54.0593 32.1533 54.0153 32.2417C53.9712 32.3298 53.9092 32.408 53.8332 32.4708C53.757 32.5337 53.6687 32.5798 53.5735 32.6063C53.4785 32.6329 53.3789 32.6392 53.2813 32.6248L52.596 32.5231C52.3832 32.4932 52.1861 32.3938 52.0353 32.2404C51.8848 32.0869 51.7891 31.8881 51.7632 31.6746C51.7577 31.5795 51.7742 31.4844 51.8113 31.3967C51.8484 31.309 51.9052 31.231 51.9771 31.1685C52.0491 31.1062 52.1345 31.0611 52.2266 31.037C52.3187 31.0128 52.4152 31.01 52.5085 31.0289Z" fill="#FFC619"/>
<path d="M52.2014 32.4204L52.8451 32.5222C52.9529 32.5356 53.0564 32.572 53.1485 32.6292C53.2406 32.6864 53.3191 32.7632 53.3786 32.8537C53.4382 32.9445 53.4773 33.0471 53.4932 33.1543C53.5091 33.2616 53.5013 33.371 53.4707 33.4751C53.427 33.6425 53.3216 33.7873 53.1755 33.8801C53.0295 33.9729 52.8538 34.0071 52.6835 33.9757L52.2889 33.9146C52.0736 33.8856 51.8736 33.7869 51.7195 33.6338C51.5655 33.4807 51.4657 33.2813 51.4353 33.0661C51.429 32.9688 51.4457 32.8716 51.4839 32.7818C51.5222 32.6923 51.5809 32.6128 51.6554 32.5499C51.73 32.4872 51.8181 32.4427 51.913 32.4202C52.0078 32.3977 52.1066 32.3978 52.2014 32.4204Z" fill="#FFC619"/>
<path d="M50.1951 34.7928L47.9525 34.4882L48.0535 33.5746L50.2962 33.8999L50.1951 34.7928Z" fill="#FFC619"/>
<path d="M50.7237 31.1588L49.3116 30.9555C49.2444 30.9466 49.1812 30.9183 49.1294 30.8745C49.0777 30.8304 49.0398 30.7724 49.0203 30.7073L48.8946 30.3341L48.7885 29.5664L48.0287 32.2671L50.3129 32.5923C50.5256 32.6201 50.7413 32.5754 50.9255 32.4657C51.1097 32.3559 51.2516 32.1876 51.3282 31.9872C51.3526 31.8923 51.3556 31.7931 51.3373 31.6968C51.3187 31.6006 51.2792 31.5096 51.2215 31.4305C51.1637 31.3511 51.089 31.2858 51.0031 31.2389C50.9171 31.1918 50.8217 31.1645 50.7237 31.1588Z" fill="#FFC619"/>
<path d="M50.2715 32.5716L48.0288 32.2671L48.1371 33.7613L49.8607 34.0051C50.071 34.0358 50.2853 33.992 50.4668 33.8816C50.6483 33.7713 50.7856 33.6009 50.8552 33.4001C50.8833 33.3067 50.8899 33.208 50.8744 33.1116C50.8588 33.0151 50.8213 32.9237 50.7653 32.8437C50.709 32.764 50.6353 32.698 50.5496 32.6507C50.4642 32.6036 50.369 32.5765 50.2715 32.5716Z" fill="#FFC619"/>
<path d="M66.1988 41.6771C66.2542 39.4352 64.4058 39.0879 63.1373 38.303C61.8687 37.5181 60.3692 35.8621 58.8091 34.7459C57.2489 33.6298 55.8998 33.6547 53.2662 34.4722L56.2936 40.3164C57.9983 41.183 58.3748 42.1367 59.292 43.4208C60.2092 44.705 61.4354 45.1994 62.6593 44.9674C63.306 46.024 63.4313 46.2727 64.3643 45.9378C65.2974 45.6029 66.8312 44.8925 67.2426 43.6666C67.6541 42.4407 67.0515 42.2349 66.1988 41.6771Z" fill="#66BCFF"/>
<path d="M56.1586 36.8712C55.8823 37.7631 55.7043 38.6823 55.6272 39.6127" stroke="black" stroke-width="2" stroke-miterlimit="10" stroke-linecap="round"/>
<path d="M57.416 47.6609C55.5323 49.3687 53.9326 48.8961 53.1851 48.8154C52.4376 48.7346 52.519 48.1947 52.4553 47.7382C52.3917 47.2818 52.3481 46.5969 52.3481 46.5969C50.4588 46.4781 50.2266 45.1919 50.1816 44.0504C50.1367 42.9089 49.8456 42.7437 49.6978 41.9347C47.4191 41.5325 45.2639 40.6112 43.3987 39.2417C41.5334 37.8724 40.0089 36.0917 38.9426 34.0382L40.9101 32.6L45.3192 35.4511C48.2841 34.342 49.9222 33.7766 51.5201 33.6679C53.1181 33.5593 54.6974 34.1565 55.223 36.3758C55.7487 38.5952 55.813 39.28 56.2936 40.3372C56.419 40.6066 56.6277 40.9796 56.8365 41.3734C57.4212 42.5547 58.0282 44.2134 56.8506 46.0228C56.9965 46.5826 57.1856 47.1305 57.416 47.6609Z" fill="#8CD9FF"/>
<path d="M42.1726 38.2211C42.1059 36.7476 42.6632 35.7081 43.6798 35.5389L41.1005 33.7617L39.2349 34.5768C39.7163 35.9038 40.9454 37.3531 42.1726 38.2211Z" fill="black"/>
<path d="M46.382 29.9888C45.7785 29.4717 45.322 29.5146 44.5964 29.8282C43.8263 29.1248 42.8297 29.024 41.7929 29.38C40.7562 29.736 39.1593 30.2183 38.226 30.4702C38.174 30.4899 38.1173 30.494 38.0629 30.4823C38.0085 30.4705 37.9586 30.4434 37.9191 30.4043C37.8797 30.365 37.8524 30.3152 37.8404 30.2609C37.8282 30.2066 37.8321 30.1499 37.8513 30.0977L38.5287 27.6048C36.3128 29.2721 35.5971 32.8237 36.3086 34.7519C37.0202 36.6802 40.0921 36.6501 41.0661 36.1075C42.04 35.5648 42.3716 35.3978 43.4931 35.6019C44.6146 35.8061 45.4868 35.9488 46.9571 34.8234L47.828 34.5302C48.1544 32.6403 47.8597 31.2713 46.382 29.9888Z" fill="#3442D9"/>
<path d="M46.382 29.9887C45.7785 29.4717 45.322 29.5146 44.5964 29.8281C43.8263 29.1247 42.8297 29.0239 41.7929 29.38C40.7561 29.736 39.1593 30.2182 38.226 30.4701" stroke="black" stroke-miterlimit="10" stroke-linecap="round"/>
<path d="M44.5964 29.8282C45.2179 30.3065 45.7359 30.9056 46.1197 31.5892C46.5035 32.273 46.7449 33.0274 46.8295 33.8068" stroke="black" stroke-miterlimit="10" stroke-linecap="round"/>
<path d="M50.8839 29.1865C50.8932 29.1578 50.8962 29.1275 50.8926 29.0974C50.889 29.0676 50.8789 29.0387 50.8629 29.0132C50.847 28.9876 50.8258 28.9656 50.8006 28.9491C50.7754 28.9326 50.747 28.9216 50.7171 28.9172L50.5095 28.9178C50.4518 28.9053 50.3914 28.9159 50.3412 28.947C50.2909 28.978 50.2547 29.0273 50.2402 29.0847L50.0554 29.7702C50.046 29.8005 50.0436 29.8325 50.0485 29.8638C50.0533 29.8952 50.0652 29.9248 50.0832 29.9509C50.1013 29.9768 50.1252 29.9983 50.1529 30.0138C50.1805 30.0291 50.2115 30.0379 50.2431 30.0395L50.4506 30.0388C50.5052 30.0457 50.5604 30.0325 50.6062 30.0018C50.6518 29.9712 50.6848 29.9252 50.6992 29.872L50.8839 29.1865Z" fill="#29CC7A"/>
<path d="M47.5508 25.2112C47.7103 24.8859 47.9462 24.6042 48.2383 24.39C48.5305 24.1758 48.8703 24.0357 49.2284 23.9815C49.2699 23.9814 49.2905 23.9398 49.2697 23.9191C48.9968 22.9236 49.1197 22.3628 49.4703 21.6352C49.4739 21.63 49.4761 21.624 49.4769 21.6177C49.4777 21.6114 49.4771 21.605 49.4752 21.599C49.4731 21.593 49.4698 21.5875 49.4652 21.583C49.4608 21.5785 49.4554 21.5751 49.4494 21.573C48.2855 21.0784 47.8471 20.2495 47.7207 19.6271C47.6998 19.5857 47.6375 19.5651 47.6168 19.6067C47.1011 20.6461 46.3955 20.6898 45.7933 20.6086C45.7518 20.6087 45.7311 20.6503 45.7519 20.6709C46.3574 21.8315 45.924 22.6631 45.3239 23.2461C45.3208 23.2542 45.3191 23.263 45.3196 23.2717C45.32 23.2805 45.3223 23.289 45.3263 23.2969C45.3303 23.3047 45.3357 23.3116 45.3425 23.3172C45.3492 23.3227 45.3571 23.3267 45.3656 23.329C46.5286 23.533 47.1536 24.2991 47.4469 25.1908C47.4678 25.2322 47.5302 25.2528 47.5508 25.2112Z" fill="#FFC619"/>
<path d="M50.2715 32.5716L49.0879 32.4092" stroke="black" stroke-miterlimit="10" stroke-linecap="round"/>
<path d="M52.4299 32.5028L53.0945 32.6046" stroke="black" stroke-miterlimit="10" stroke-linecap="round"/>
<path d="M47.679 19.5858C48.1944 18.4218 48.1504 17.6124 48.0037 17.1562" stroke="black" stroke-miterlimit="10" stroke-linecap="round"/>
<path d="M49.3456 21.6149C49.6695 21.6635 50.0003 21.6419 50.3151 21.5514C50.6302 21.4609 50.9219 21.3037 51.1706 21.0904" stroke="black" stroke-miterlimit="10" stroke-linecap="round"/>
<path d="M47.5508 25.2112C47.5529 25.3657 47.5324 25.5197 47.4899 25.6681" stroke="black" stroke-miterlimit="10" stroke-linecap="round"/>
<path d="M45.4276 23.2666C44.6613 23.8086 43.4986 23.7291 42.6884 23.4825" stroke="black" stroke-miterlimit="10" stroke-linecap="round"/>
<path d="M45.7932 20.6085C45.5008 20.0074 44.9591 19.3241 44.4602 19.0973" stroke="black" stroke-miterlimit="10" stroke-linecap="round"/>
<path d="M49.2695 23.9189C49.5377 24.061 49.8245 24.165 50.1215 24.2277" stroke="black" stroke-miterlimit="10" stroke-linecap="round"/>
<path d="M47.0419 21.705C47.3989 23.0738 47.8553 22.9894 48.0616 22.5737C48.2679 22.1579 48.4117 21.6385 48.7439 21.679C49.0761 21.7196 48.9949 22.301 48.603 23.1325C48.2111 23.9639 47.5682 24.1527 46.9641 23.428C46.36 22.7034 46.3371 21.9977 46.3148 21.4996C46.2925 21.0015 46.8111 20.8754 47.0419 21.705Z" fill="#C40655"/>
<path d="M46.2247 26.0248C46.4825 28.8884 45.0337 30.2628 44.5857 33.1078" stroke="white" stroke-miterlimit="10" stroke-linecap="round"/>
<path d="M49.5318 41.9559C49.1545 40.7324 48.9817 38.4912 49.9928 36.5162" stroke="black" stroke-width="2" stroke-miterlimit="10" stroke-linecap="round"/>
<path d="M39.035 30.2395L37.5005 30.7423" stroke="black" stroke-miterlimit="10" stroke-linecap="round"/>
<path d="M54.2905 30.0063L55.3292 30.2938" stroke="black" stroke-miterlimit="10" stroke-linecap="round"/>
</g>
<g clip-path="url(#clip4_1_535)">
<rect x="10.5044" y="6.78687" width="29.1892" height="29.1892" rx="14.5946" transform="rotate(-0.173721 10.5044 6.78687)" fill="url(#paint0_linear_1_535)"/>
<path d="M37.0188 18.372C38.5295 12.5544 39.2609 11.5212 42.7968 19.0094L37.0188 18.372Z" fill="#D4E1FF"/>
<path d="M22.5857 30.8351L22.447 30.9552C24.5568 32.9329 27.7689 38.021 32.6305 37.7491C32.6305 37.7491 36.5825 44.9187 40.8085 44.1128C45.0344 43.306 48.1519 37.3445 48.1519 37.3445C49.2907 35.2867 50.0947 33.0608 50.5338 30.7504C50.4727 30.2154 50.2729 29.7989 49.8953 29.5421C46.8718 27.548 24.7842 29.2221 22.5857 30.8351Z" fill="#1C1B29"/>
<path d="M28.9527 16.095L33.3823 17.2717C34.6977 16.7047 36.1164 16.4169 37.5487 16.4266C44.2971 16.4061 47.9064 21.8707 47.9268 28.5958C47.9472 35.3216 44.3711 40.808 37.6227 40.8285C30.8735 40.849 27.2843 35.3843 27.2639 28.6584C27.2568 27.6681 27.3334 26.6789 27.4928 25.7014C27.9422 23.1205 27.8128 20.4707 27.1117 17.9456C27.0435 17.6904 27.0434 17.4217 27.1115 17.1664C27.1797 16.9111 27.3136 16.6782 27.5 16.4908C27.6863 16.3035 27.9185 16.1684 28.1735 16.0989C28.4284 16.0295 28.6971 16.0281 28.9527 16.095Z" fill="#B3CAFF"/>
<path d="M47.6978 31.5135C44.4269 32.9714 41.0481 31.4533 37.7872 29.5989C34.2276 27.5662 31.929 22.3949 30.9516 20.7513C29.9743 19.107 28.5832 18.7946 27.6237 16.3972C27.397 16.5776 27.228 16.8201 27.1372 17.0952C27.0463 17.3702 27.0378 17.6658 27.1125 17.9456C27.8131 20.4709 27.943 23.1205 27.4928 25.7022C27.3335 26.6794 27.2569 27.6683 27.2639 28.6584C27.2843 35.3843 30.8936 40.8489 37.6227 40.8285C43.3594 40.8111 46.8011 36.8326 47.6978 31.5127L47.6978 31.5135Z" fill="#8DAEF7"/>
<path d="M47.0965 29.5104C47.1124 34.7481 44.009 39.0036 40.1776 39.0152C36.347 39.0268 33.2372 34.7902 33.2213 29.5525C33.1951 20.9029 38.5956 27.9692 42.427 27.9576C46.2576 27.946 47.1728 22.0908 47.0965 29.5104Z" fill="#FCFDFF"/>
<path d="M40.279 34.5815C40.651 34.5491 40.9081 34.0276 40.8557 33.4162C40.8024 32.8049 40.4578 32.3358 40.0867 32.3675C39.7155 32.4007 39.4575 32.9222 39.5108 33.5328C39.5641 34.1442 39.9079 34.614 40.279 34.5815ZM44.8362 33.5544C44.9452 32.9506 44.7363 32.4072 44.3688 32.3416C44.0022 32.2752 43.6162 32.7112 43.5071 33.315C43.3989 33.918 43.6079 34.4614 43.9745 34.5278C44.3411 34.5941 44.7271 34.1582 44.8362 33.5544Z" fill="#1C1B29"/>
<path d="M60.355 94.5831C57.5378 95.1871 49.0776 87.1778 49.0776 87.1778C51.4221 94.4711 51.8257 96.6524 52.2283 98.5356C52.631 100.42 52.3935 100.797 52.2392 102.127C52.0841 103.456 52.084 103.417 52.883 105.081C53.682 106.745 54.2022 107.914 54.3631 108.767C54.4241 109.262 54.4055 109.764 54.3081 110.254L18.8371 110.362C18.8371 110.362 18.6555 109.569 19.4033 107.364C20.1512 105.16 21.8725 103.33 22.8206 101.938C23.7694 100.546 23.7103 100.686 23.4506 100.111C22.2512 97.2974 24.1784 97.9071 24.9796 93.6786C25.78 89.4502 25.9777 69.2927 27.7583 61.0547C29.5398 52.8159 32.2933 50.8629 32.4712 44.0577C29.1068 40.9339 20.7651 32.8045 22.447 30.9544C24.3577 32.7342 30.0769 33.5903 34.7415 33.5368C35.1507 33.5297 35.5517 33.6518 35.8874 33.8858C36.2231 34.1198 36.4765 34.4538 36.6114 34.8401C37.4126 37.238 39.4319 41.9738 42.5864 41.3487C45.741 40.7244 48.0655 35.0826 48.715 33.0372C48.8519 32.5907 49.1377 32.2047 49.5249 31.9435C49.9473 31.6277 50.2923 31.22 50.5338 30.7511C50.9828 34.6576 44.5229 45.0328 44.5229 45.0328C44.5229 45.0328 46.1735 59.0743 49.4034 63.6867C52.6325 68.2999 61.6646 68.2725 61.8957 72.6762C62.1276 77.079 63.152 93.9791 60.355 94.5831Z" fill="#BD4070"/>
<path d="M32.9007 35.2082C30.5579 35.0763 27.4011 34.6889 22.3318 32.1851C23.154 35.1381 29.6248 41.388 32.4711 44.0577C32.4347 46.1684 32.059 48.2596 31.3585 50.251C33.9296 53.8737 37.0194 51.5035 37.6064 61.6991C37.8575 66.0432 41.0707 71.8064 44.4245 78.0456C47.7783 84.2848 48.1999 72.7965 48.0437 67.143C47.9548 64.068 47.3285 60.2609 46.6618 56.6324C45.2365 51.1411 44.5229 45.0328 44.5229 45.0328C44.5229 45.0328 49.0467 37.758 50.2628 33.1121C49.9532 33.3059 49.7114 33.5911 49.571 33.9274C48.348 36.7072 46.978 39.42 45.4669 42.0543C43.9063 44.698 40.9926 46.0159 37.6219 40.8286C34.252 35.6405 35.422 35.3597 32.9007 35.2082Z" fill="#A12C66"/>
<path d="M34.3403 25.483C37.8393 27.1583 39.0568 29.2977 41.8554 29.2097C44.654 29.1216 45.7411 27.7691 46.8671 25.9609C46.4076 24.9699 45.1663 27.9493 42.4269 27.9576C39.6876 27.9659 36.1038 24.3068 34.3403 25.483Z" fill="#8DAEF7"/>
</g>
<path d="M126.955 25.114L126.949 22.858L124.597 22.8652L124.593 21.5052L126.945 21.498L126.937 19.162L128.329 19.1578L128.337 21.4938L130.689 21.4867L130.693 22.8467L128.341 22.8538L128.347 25.1098L126.955 25.114Z" fill="#263238"/>
<path d="M142.877 22.8127C143.336 22.886 143.731 23.0554 144.062 23.3211C144.394 23.5761 144.651 23.906 144.833 24.3108C145.016 24.7049 145.108 25.1526 145.109 25.6539C145.111 26.3046 144.953 26.8757 144.635 27.3674C144.327 27.8696 143.885 28.255 143.31 28.5234C142.735 28.8025 142.063 28.9432 141.295 28.9455C140.485 28.948 139.77 28.7955 139.15 28.488C138.541 28.1912 138.065 27.766 137.722 27.2123L138.663 26.2655C138.91 26.6914 139.242 27.0317 139.658 27.2865C140.086 27.5412 140.63 27.6675 141.291 27.6655C142.027 27.6633 142.603 27.4909 143.018 27.1483C143.444 26.8163 143.655 26.3197 143.653 25.6583C143.651 24.9863 143.42 24.4537 142.961 24.0604C142.511 23.6565 141.855 23.4558 140.991 23.4584L140.575 23.4597L140.571 22.2757L141.019 22.2743C141.787 22.272 142.373 22.0835 142.777 21.709C143.192 21.3344 143.399 20.8698 143.397 20.3151C143.396 19.9311 143.304 19.6167 143.122 19.3719C142.94 19.1271 142.694 18.9465 142.385 18.8301C142.075 18.7031 141.717 18.6402 141.312 18.6414C140.725 18.6432 140.208 18.7727 139.761 19.0301C139.325 19.2768 138.984 19.6245 138.74 20.0732L137.874 19.1798C138.065 18.8166 138.336 18.5011 138.687 18.2334C139.049 17.9656 139.464 17.7563 139.933 17.6056C140.412 17.4548 140.919 17.3786 141.452 17.377C142.124 17.3749 142.717 17.4905 143.229 17.7236C143.753 17.9567 144.159 18.2861 144.448 18.7119C144.738 19.1377 144.883 19.6386 144.885 20.2146C144.886 20.6306 144.807 21.0255 144.648 21.3993C144.49 21.7624 144.256 22.0725 143.947 22.3294C143.649 22.5757 143.293 22.7367 142.877 22.8127ZM151.327 28.5951L151.319 25.8911L146.183 25.9067L146.179 24.6587L151.741 17.4258L152.701 17.4229L152.723 24.6068L154.131 24.6026L154.135 25.8826L152.727 25.8868L152.735 28.5908L151.327 28.5951ZM147.635 24.6223L151.459 24.6107L151.444 19.6027L147.635 24.6223ZM155.411 26.5507C155.409 26.124 155.44 25.7239 155.503 25.3504C155.577 24.9768 155.703 24.6191 155.884 24.2772C156.075 23.9353 156.34 23.6092 156.681 23.2988C157.021 22.9778 157.463 22.6671 158.006 22.3668C158.325 22.1845 158.645 22.0129 158.964 21.8519C159.295 21.6909 159.598 21.5193 159.875 21.3371C160.162 21.1549 160.391 20.9569 160.561 20.743C160.731 20.5185 160.816 20.2623 160.815 19.9743C160.814 19.7289 160.739 19.4945 160.589 19.271C160.449 19.0367 160.235 18.8507 159.947 18.7129C159.669 18.5644 159.322 18.4908 158.906 18.4921C158.586 18.493 158.293 18.5366 158.027 18.6227C157.771 18.7088 157.537 18.8215 157.324 18.9609C157.121 19.0895 156.94 19.2287 156.781 19.3785C156.632 19.5176 156.504 19.646 156.398 19.7637L155.515 18.7743C155.6 18.6781 155.744 18.5496 155.946 18.389C156.148 18.2177 156.404 18.0463 156.712 17.8747C157.021 17.7031 157.378 17.558 157.783 17.4395C158.199 17.3102 158.652 17.2448 159.142 17.2433C159.804 17.2413 160.369 17.3569 160.839 17.5902C161.32 17.8127 161.689 18.1209 161.946 18.5148C162.203 18.8981 162.333 19.3297 162.334 19.8097C162.335 20.2257 162.246 20.5886 162.066 20.8985C161.896 21.2083 161.673 21.481 161.396 21.7165C161.13 21.952 160.848 22.1555 160.55 22.3271C160.262 22.488 160.001 22.6274 159.767 22.7455C159.288 22.9816 158.878 23.1962 158.537 23.3892C158.196 23.5822 157.914 23.7751 157.691 23.9678C157.478 24.1497 157.303 24.3423 157.165 24.5454C157.037 24.7484 156.942 24.9887 156.879 25.2662L162.527 25.2491L162.531 26.5291L155.411 26.5507Z" fill="#263238"/>
<path d="M169.625 25.6476C169.018 25.6495 168.449 25.5532 167.916 25.3588C167.384 25.1551 166.925 24.8531 166.541 24.453L167.015 23.5835C167.436 23.9743 167.857 24.253 168.277 24.4197C168.698 24.5864 169.127 24.6691 169.566 24.6678C170.07 24.6663 170.481 24.5717 170.797 24.3841C171.114 24.1871 171.272 23.902 171.271 23.5286C171.27 23.258 171.185 23.0575 171.017 22.9274C170.858 22.7972 170.629 22.6906 170.33 22.6075C170.031 22.515 169.676 22.4135 169.265 22.3027C168.761 22.1549 168.335 21.9975 167.99 21.8306C167.644 21.6636 167.382 21.4544 167.204 21.2029C167.026 20.9515 166.936 20.6344 166.935 20.2518C166.933 19.7851 167.053 19.3927 167.295 19.0747C167.537 18.7473 167.867 18.4989 168.287 18.3296C168.716 18.1603 169.201 18.0749 169.742 18.0732C170.283 18.0716 170.774 18.1541 171.213 18.3208C171.652 18.4874 172.031 18.7336 172.349 19.0593L171.792 19.915C171.502 19.6172 171.184 19.3989 170.838 19.2599C170.492 19.1116 170.104 19.0381 169.675 19.0394C169.423 19.0402 169.176 19.0736 168.933 19.1397C168.691 19.1964 168.491 19.3044 168.332 19.4635C168.174 19.6133 168.095 19.8282 168.096 20.1082C168.097 20.3416 168.158 20.528 168.28 20.6677C168.411 20.798 168.598 20.9094 168.841 21.002C169.093 21.0945 169.397 21.1963 169.752 21.3072C170.303 21.4642 170.78 21.6214 171.181 21.7789C171.593 21.9363 171.911 22.1407 172.135 22.392C172.36 22.6433 172.473 22.993 172.474 23.441C172.477 24.1316 172.217 24.6738 171.695 25.0673C171.174 25.4516 170.484 25.645 169.625 25.6476ZM177.734 25.119C177.631 25.166 177.491 25.2271 177.314 25.3023C177.137 25.3775 176.932 25.4435 176.699 25.5002C176.465 25.5569 176.218 25.5856 175.957 25.5864C175.658 25.5873 175.383 25.5368 175.13 25.4349C174.878 25.3237 174.677 25.1563 174.527 24.9328C174.377 24.6999 174.301 24.4108 174.3 24.0654L174.285 19.1515L173.291 19.1545L173.288 18.1885L174.282 18.1855L174.275 15.7495L175.507 15.7457L175.514 18.1817L177.152 18.1768L177.155 19.1428L175.517 19.1477L175.531 23.6837C175.551 23.945 175.64 24.1407 175.799 24.2709C175.958 24.3918 176.145 24.4519 176.359 24.4512C176.602 24.4505 176.826 24.4078 177.031 24.3232C177.236 24.2385 177.371 24.1775 177.437 24.1399L177.734 25.119ZM178.798 22.5538L178.784 18.1718L180.016 18.1681L180.029 22.3121C180.031 23.0587 180.164 23.6183 180.426 23.9909C180.688 24.3634 181.076 24.5489 181.59 24.5473C181.926 24.5463 182.247 24.4753 182.555 24.3344C182.872 24.1841 183.156 23.9733 183.407 23.7018C183.658 23.4304 183.853 23.1078 183.992 22.7341L183.978 18.1561L185.21 18.1523L185.228 24.0603C185.229 24.2096 185.257 24.3216 185.313 24.3961C185.379 24.4612 185.482 24.4982 185.622 24.5071L185.624 25.4591C185.485 25.4782 185.373 25.4879 185.289 25.4881C185.214 25.4977 185.139 25.5026 185.065 25.5028C184.831 25.5035 184.63 25.4341 184.462 25.2946C184.293 25.1458 184.204 24.9641 184.194 24.7494L184.164 23.8955C183.848 24.4378 183.42 24.8591 182.88 25.1594C182.348 25.4597 181.766 25.6108 181.131 25.6127C180.366 25.6151 179.786 25.3601 179.393 24.848C178.999 24.3265 178.801 23.5618 178.798 22.5538ZM186.798 21.8155C186.796 21.1249 186.934 20.4945 187.212 19.9243C187.499 19.3447 187.89 18.8815 188.384 18.5347C188.887 18.1879 189.46 18.0135 190.104 18.0115C190.692 18.0097 191.22 18.1621 191.687 18.4687C192.155 18.7753 192.52 19.1475 192.783 19.5854L192.77 15.2174L194.002 15.2137L194.028 24.0336C194.029 24.183 194.057 24.2949 194.113 24.3694C194.179 24.4345 194.282 24.4715 194.422 24.4804L194.425 25.4324C194.191 25.4705 194.009 25.4897 193.879 25.4901C193.636 25.4908 193.421 25.4075 193.234 25.24C193.056 25.0726 192.967 24.8862 192.966 24.6808L192.964 24.0649C192.677 24.5324 192.29 24.9022 191.806 25.1744C191.321 25.4465 190.818 25.5834 190.295 25.585C189.791 25.5865 189.324 25.4899 188.894 25.2952C188.474 25.0911 188.104 24.8123 187.786 24.4586C187.477 24.1048 187.233 23.7042 187.054 23.2568C186.885 22.7999 186.799 22.3195 186.798 21.8155ZM192.793 22.8754L192.786 20.7754C192.674 20.4584 192.491 20.1743 192.238 19.923C191.985 19.6625 191.7 19.458 191.382 19.3096C191.074 19.1519 190.765 19.0735 190.457 19.0744C190.093 19.0755 189.762 19.1559 189.464 19.3154C189.175 19.4657 188.924 19.6718 188.71 19.9337C188.505 20.1864 188.348 20.4762 188.237 20.8032C188.126 21.1302 188.071 21.471 188.072 21.8257C188.073 22.1897 188.134 22.5348 188.257 22.8611C188.388 23.1874 188.567 23.4762 188.791 23.7275C189.026 23.9788 189.292 24.174 189.591 24.3131C189.9 24.4521 190.231 24.5211 190.586 24.5201C190.81 24.5194 191.038 24.4767 191.271 24.392C191.514 24.3073 191.742 24.1899 191.956 24.0399C192.171 23.8899 192.352 23.7167 192.501 23.5203C192.65 23.3145 192.747 23.0995 192.793 22.8754ZM199.324 25.5576C198.773 25.5592 198.269 25.4628 197.811 25.2682C197.362 25.0642 196.969 24.79 196.632 24.4457C196.305 24.0921 196.047 23.6868 195.859 23.2301C195.68 22.7733 195.59 22.2882 195.588 21.7749C195.586 21.0842 195.743 20.4537 196.058 19.8835C196.374 19.3132 196.811 18.8545 197.37 18.5075C197.939 18.1604 198.587 17.9858 199.315 17.9836C200.052 17.9813 200.692 18.1567 201.234 18.5098C201.786 18.8534 202.212 19.3095 202.512 19.8779C202.822 20.4369 202.978 21.0431 202.98 21.6965C202.98 21.7898 202.976 21.8832 202.967 21.9765C202.967 22.0605 202.963 22.1259 202.953 22.1726L196.891 22.1909C196.93 22.6668 197.062 23.0911 197.287 23.4637C197.522 23.827 197.821 24.1155 198.186 24.329C198.551 24.5333 198.943 24.6347 199.363 24.6335C199.811 24.6321 200.231 24.5188 200.622 24.2936C201.023 24.0684 201.297 23.7736 201.445 23.4091L202.51 23.6999C202.352 24.0551 202.115 24.3731 201.799 24.6541C201.492 24.935 201.124 25.1555 200.695 25.3154C200.275 25.4754 199.818 25.5561 199.324 25.5576ZM196.847 21.3371L201.831 21.322C201.792 20.8461 201.655 20.4265 201.421 20.0632C201.187 19.6999 200.887 19.4161 200.522 19.2119C200.158 19.0077 199.756 18.9062 199.318 18.9076C198.888 18.9089 198.492 19.0127 198.128 19.2192C197.765 19.4256 197.467 19.7112 197.235 20.0759C197.012 20.4406 196.883 20.861 196.847 21.3371ZM210.703 25.3831L209.471 25.3868L209.458 21.2988C209.456 20.5242 209.333 19.9599 209.089 19.6059C208.855 19.2427 208.495 19.0617 208.01 19.0632C207.674 19.0642 207.338 19.1493 207.002 19.3183C206.676 19.4873 206.383 19.7168 206.122 20.0069C205.871 20.2877 205.69 20.6149 205.579 20.9886L205.593 25.3986L204.361 25.4023L204.339 18.0943L205.459 18.0909L205.463 19.6589C205.658 19.313 205.909 19.0136 206.217 18.7606C206.524 18.5077 206.873 18.3107 207.265 18.1695C207.656 18.0283 208.067 17.957 208.496 17.9557C208.916 17.9545 209.266 18.0327 209.547 18.1905C209.837 18.339 210.061 18.553 210.221 18.8325C210.39 19.1027 210.507 19.4243 210.574 19.7974C210.65 20.1705 210.688 20.5764 210.689 21.0151L210.703 25.3831ZM216.329 25.002C216.227 25.049 216.087 25.1101 215.91 25.1853C215.732 25.2605 215.527 25.3264 215.294 25.3832C215.061 25.4399 214.814 25.4686 214.552 25.4694C214.254 25.4703 213.978 25.4198 213.726 25.3179C213.474 25.2067 213.272 25.0393 213.122 24.8157C212.972 24.5829 212.897 24.2938 212.896 23.9484L212.881 19.0344L211.887 19.0375L211.884 18.0715L212.878 18.0684L212.871 15.6325L214.103 15.6287L214.11 18.0647L215.748 18.0597L215.751 19.0257L214.113 19.0307L214.127 23.5667C214.146 23.828 214.235 24.0237 214.394 24.1539C214.553 24.2747 214.74 24.3348 214.955 24.3342C215.198 24.3334 215.422 24.2908 215.627 24.2061C215.832 24.1215 215.967 24.0604 216.032 24.0229L216.329 25.002ZM219.978 25.495C219.372 25.4968 218.802 25.4005 218.27 25.2061C217.737 25.0024 217.279 24.7005 216.895 24.3003L217.368 23.4309C217.789 23.8216 218.21 24.1003 218.631 24.267C219.051 24.4338 219.481 24.5165 219.919 24.5151C220.423 24.5136 220.834 24.419 221.151 24.2314C221.467 24.0344 221.625 23.7493 221.624 23.376C221.623 23.1053 221.539 22.9049 221.37 22.7747C221.211 22.6445 220.982 22.5379 220.683 22.4548C220.384 22.3624 220.029 22.2608 219.618 22.15C219.114 22.0022 218.689 21.8448 218.343 21.6779C217.997 21.5109 217.735 21.3017 217.557 21.0503C217.379 20.7988 217.289 20.4818 217.288 20.0991C217.287 19.6324 217.407 19.2401 217.648 18.922C217.89 18.5946 218.221 18.3462 218.64 18.177C219.069 18.0077 219.554 17.9222 220.095 17.9206C220.637 17.9189 221.127 18.0014 221.566 18.1681C222.005 18.3348 222.384 18.581 222.702 18.9067L222.145 19.7624C221.855 19.4646 221.537 19.2462 221.191 19.1072C220.845 18.959 220.458 18.8855 220.028 18.8868C219.776 18.8875 219.529 18.921 219.287 18.987C219.044 19.0438 218.844 19.1517 218.686 19.3108C218.527 19.4607 218.449 19.6756 218.45 19.9556C218.45 20.1889 218.512 20.3754 218.633 20.515C218.764 20.6453 218.951 20.7567 219.194 20.8493C219.447 20.9419 219.75 21.0436 220.105 21.1545C220.656 21.3115 221.133 21.4688 221.535 21.6262C221.946 21.7836 222.264 21.988 222.489 22.2393C222.713 22.4906 222.826 22.8403 222.828 23.2883C222.83 23.979 222.57 24.5211 222.049 24.9147C221.527 25.2989 220.837 25.4923 219.978 25.495Z" fill="#263238"/>
<defs>
<linearGradient id="paint0_linear_1_535" x1="25.099" y1="36.1084" x2="25.099" y2="15.2001" gradientUnits="userSpaceOnUse">
<stop stop-color="#7196FF"/>
<stop offset="1" stop-color="#2A5EE8"/>
</linearGradient>
<clipPath id="clip0_1_535">
<rect x="89.3103" y="5.0885" width="29.1892" height="29.1892" rx="14.5946" transform="rotate(-0.173721 89.3103 5.0885)" fill="white"/>
</clipPath>
<clipPath id="clip1_1_535">
<rect x="73.7429" y="5.13574" width="29.1892" height="29.1892" rx="14.5946" transform="rotate(-0.173721 73.7429 5.13574)" fill="white"/>
</clipPath>
<clipPath id="clip2_1_535">
<rect x="52.3406" y="6.17358" width="29.1892" height="29.1892" rx="14.5946" transform="rotate(-0.173721 52.3406 6.17358)" fill="white"/>
</clipPath>
<clipPath id="clip3_1_535">
<rect x="31.4233" y="6.72339" width="29.1892" height="29.1892" rx="14.5946" transform="rotate(-0.173721 31.4233 6.72339)" fill="white"/>
</clipPath>
<clipPath id="clip4_1_535">
<rect x="10.5044" y="6.78687" width="29.1892" height="29.1892" rx="14.5946" transform="rotate(-0.173721 10.5044 6.78687)" fill="white"/>
</clipPath>
</defs>
</svg>
