<svg width="300" height="100" viewBox="0 0 300 100" fill="none" xmlns="http://www.w3.org/2000/svg">
<g filter="url(#filter0_b_1_349)">
<rect width="300" height="100" rx="20" fill="white" fill-opacity="0.8"/>
</g>
<path d="M111.92 44V41.72L117.392 35.888C118.128 35.088 118.656 34.384 118.976 33.776C119.296 33.152 119.456 32.52 119.456 31.88C119.456 30.248 118.472 29.432 116.504 29.432C114.968 29.432 113.552 30.008 112.256 31.16L111.224 28.856C111.896 28.248 112.736 27.76 113.744 27.392C114.752 27.024 115.8 26.84 116.888 26.84C118.696 26.84 120.08 27.248 121.04 28.064C122.016 28.88 122.504 30.048 122.504 31.568C122.504 32.592 122.256 33.576 121.76 34.52C121.28 35.464 120.52 36.48 119.48 37.568L115.76 41.456H123.152V44H111.92ZM132.215 44.24C131.111 44.24 130.039 44.072 128.999 43.736C127.959 43.384 127.111 42.912 126.455 42.32L127.463 39.968C128.919 41.088 130.487 41.648 132.167 41.648C133.175 41.648 133.959 41.392 134.519 40.88C135.095 40.352 135.383 39.648 135.383 38.768C135.383 37.872 135.111 37.152 134.567 36.608C134.023 36.048 133.279 35.768 132.335 35.768C130.991 35.768 129.879 36.304 128.999 37.376H126.935V27.08H137.327V29.624H129.935V34.208C130.783 33.568 131.823 33.248 133.055 33.248C134.127 33.248 135.055 33.48 135.839 33.944C136.639 34.392 137.255 35.024 137.687 35.84C138.135 36.64 138.359 37.576 138.359 38.648C138.359 39.752 138.111 40.728 137.615 41.576C137.119 42.408 136.407 43.064 135.479 43.544C134.567 44.008 133.479 44.24 132.215 44.24ZM146.941 44.24C144.941 44.24 143.413 43.488 142.357 41.984C141.301 40.464 140.773 38.304 140.773 35.504C140.773 32.672 141.301 30.52 142.357 29.048C143.413 27.576 144.941 26.84 146.941 26.84C148.957 26.84 150.485 27.576 151.525 29.048C152.581 30.52 153.109 32.664 153.109 35.48C153.109 38.296 152.581 40.464 151.525 41.984C150.469 43.488 148.941 44.24 146.941 44.24ZM146.941 41.72C148.029 41.72 148.829 41.224 149.341 40.232C149.869 39.224 150.133 37.64 150.133 35.48C150.133 33.336 149.869 31.784 149.341 30.824C148.829 29.848 148.029 29.36 146.941 29.36C145.869 29.36 145.069 29.848 144.541 30.824C144.013 31.784 143.749 33.336 143.749 35.48C143.749 37.64 144.013 39.224 144.541 40.232C145.069 41.224 145.869 41.72 146.941 41.72ZM156.172 44V27.08H159.172V37.256H159.22L163.948 32.264H167.572L162.244 37.88L167.908 44H164.236L159.22 38.768H159.172V44H156.172Z" fill="#595959"/>
<path d="M110.22 74L116.5 59.9H118.22L124.52 74H122.4L120.92 70.56H113.78L112.32 74H110.22ZM117.34 62.2L114.52 68.88H120.22L117.38 62.2H117.34ZM129.83 74.18C129.03 74.18 128.283 74.08 127.59 73.88C126.897 73.6667 126.317 73.3733 125.85 73L126.43 71.64C126.923 71.9867 127.463 72.2533 128.05 72.44C128.65 72.6267 129.25 72.72 129.85 72.72C130.557 72.72 131.09 72.5933 131.45 72.34C131.81 72.0867 131.99 71.7467 131.99 71.32C131.99 70.9733 131.87 70.7067 131.63 70.52C131.39 70.32 131.03 70.1667 130.55 70.06L128.65 69.68C126.97 69.3333 126.13 68.4667 126.13 67.08C126.13 66.16 126.497 65.4267 127.23 64.88C127.963 64.3333 128.923 64.06 130.11 64.06C130.79 64.06 131.437 64.16 132.05 64.36C132.677 64.56 133.197 64.86 133.61 65.26L133.03 66.62C132.63 66.2733 132.17 66.0067 131.65 65.82C131.13 65.6333 130.617 65.54 130.11 65.54C129.417 65.54 128.89 65.6733 128.53 65.94C128.17 66.1933 127.99 66.54 127.99 66.98C127.99 67.6467 128.43 68.0733 129.31 68.26L131.21 68.64C132.077 68.8133 132.73 69.1067 133.17 69.52C133.623 69.9333 133.85 70.4933 133.85 71.2C133.85 72.1333 133.483 72.8667 132.75 73.4C132.017 73.92 131.043 74.18 129.83 74.18ZM139.917 74.18C139.117 74.18 138.371 74.08 137.677 73.88C136.984 73.6667 136.404 73.3733 135.937 73L136.517 71.64C137.011 71.9867 137.551 72.2533 138.137 72.44C138.737 72.6267 139.337 72.72 139.937 72.72C140.644 72.72 141.177 72.5933 141.537 72.34C141.897 72.0867 142.077 71.7467 142.077 71.32C142.077 70.9733 141.957 70.7067 141.717 70.52C141.477 70.32 141.117 70.1667 140.637 70.06L138.737 69.68C137.057 69.3333 136.217 68.4667 136.217 67.08C136.217 66.16 136.584 65.4267 137.317 64.88C138.051 64.3333 139.011 64.06 140.197 64.06C140.877 64.06 141.524 64.16 142.137 64.36C142.764 64.56 143.284 64.86 143.697 65.26L143.117 66.62C142.717 66.2733 142.257 66.0067 141.737 65.82C141.217 65.6333 140.704 65.54 140.197 65.54C139.504 65.54 138.977 65.6733 138.617 65.94C138.257 66.1933 138.077 66.54 138.077 66.98C138.077 67.6467 138.517 68.0733 139.397 68.26L141.297 68.64C142.164 68.8133 142.817 69.1067 143.257 69.52C143.711 69.9333 143.937 70.4933 143.937 71.2C143.937 72.1333 143.571 72.8667 142.837 73.4C142.104 73.92 141.131 74.18 139.917 74.18ZM146.405 61.98V59.88H148.765V61.98H146.405ZM146.585 74V64.24H148.605V74H146.585ZM155.268 74.18C154.468 74.18 153.721 74.08 153.028 73.88C152.335 73.6667 151.755 73.3733 151.288 73L151.868 71.64C152.361 71.9867 152.901 72.2533 153.488 72.44C154.088 72.6267 154.688 72.72 155.288 72.72C155.995 72.72 156.528 72.5933 156.888 72.34C157.248 72.0867 157.428 71.7467 157.428 71.32C157.428 70.9733 157.308 70.7067 157.068 70.52C156.828 70.32 156.468 70.1667 155.988 70.06L154.088 69.68C152.408 69.3333 151.568 68.4667 151.568 67.08C151.568 66.16 151.935 65.4267 152.668 64.88C153.401 64.3333 154.361 64.06 155.548 64.06C156.228 64.06 156.875 64.16 157.488 64.36C158.115 64.56 158.635 64.86 159.048 65.26L158.468 66.62C158.068 66.2733 157.608 66.0067 157.088 65.82C156.568 65.6333 156.055 65.54 155.548 65.54C154.855 65.54 154.328 65.6733 153.968 65.94C153.608 66.1933 153.428 66.54 153.428 66.98C153.428 67.6467 153.868 68.0733 154.748 68.26L156.648 68.64C157.515 68.8133 158.168 69.1067 158.608 69.52C159.061 69.9333 159.288 70.4933 159.288 71.2C159.288 72.1333 158.921 72.8667 158.188 73.4C157.455 73.92 156.481 74.18 155.268 74.18ZM165.998 74.18C164.771 74.18 163.858 73.8667 163.258 73.24C162.658 72.6133 162.358 71.7067 162.358 70.52V65.8H160.458V64.24H162.358V61.3H164.378V64.24H167.398V65.8H164.378V70.36C164.378 71.0667 164.525 71.6 164.818 71.96C165.125 72.32 165.618 72.5 166.298 72.5C166.511 72.5 166.718 72.48 166.918 72.44C167.118 72.3867 167.318 72.3267 167.518 72.26L167.838 73.78C167.638 73.9 167.358 73.9933 166.998 74.06C166.651 74.14 166.318 74.18 165.998 74.18ZM174.025 74.18C172.425 74.18 171.165 73.7333 170.245 72.84C169.325 71.9333 168.865 70.7 168.865 69.14C168.865 68.14 169.065 67.26 169.465 66.5C169.878 65.7267 170.445 65.1267 171.165 64.7C171.885 64.2733 172.712 64.06 173.645 64.06C174.992 64.06 176.052 64.4933 176.825 65.36C177.598 66.2133 177.985 67.3933 177.985 68.9V69.58H170.825C170.972 71.6067 172.045 72.62 174.045 72.62C174.605 72.62 175.152 72.5333 175.685 72.36C176.232 72.1867 176.745 71.9 177.225 71.5L177.825 72.9C177.385 73.3 176.818 73.6133 176.125 73.84C175.432 74.0667 174.732 74.18 174.025 74.18ZM173.725 65.48C172.885 65.48 172.218 65.74 171.725 66.26C171.232 66.78 170.932 67.4733 170.825 68.34H176.285C176.245 67.4333 176.005 66.7333 175.565 66.24C175.125 65.7333 174.512 65.48 173.725 65.48ZM184.307 74.18C183.454 74.18 182.701 73.98 182.047 73.58C181.407 73.1667 180.907 72.58 180.547 71.82C180.187 71.06 180.007 70.16 180.007 69.12C180.007 68.08 180.187 67.1867 180.547 66.44C180.907 65.68 181.407 65.0933 182.047 64.68C182.687 64.2667 183.441 64.06 184.307 64.06C185.041 64.06 185.694 64.22 186.267 64.54C186.841 64.86 187.267 65.2933 187.547 65.84V59.9H189.567V74H187.587V72.3C187.307 72.8867 186.874 73.3467 186.287 73.68C185.714 74.0133 185.054 74.18 184.307 74.18ZM184.827 72.62C185.654 72.62 186.321 72.32 186.827 71.72C187.334 71.12 187.587 70.2533 187.587 69.12C187.587 67.9867 187.334 67.1267 186.827 66.54C186.321 65.94 185.654 65.64 184.827 65.64C183.987 65.64 183.314 65.94 182.807 66.54C182.301 67.1267 182.047 67.9867 182.047 69.12C182.047 70.2533 182.301 71.12 182.807 71.72C183.314 72.32 183.987 72.62 184.827 72.62ZM203.377 74.18C202.271 74.18 201.257 74.04 200.337 73.76C199.417 73.4667 198.637 73.06 197.997 72.54L198.657 70.9C199.324 71.4067 200.037 71.7867 200.797 72.04C201.557 72.2933 202.417 72.42 203.377 72.42C204.511 72.42 205.344 72.22 205.877 71.82C206.424 71.4067 206.697 70.8733 206.697 70.22C206.697 69.6867 206.504 69.2667 206.117 68.96C205.731 68.64 205.084 68.3867 204.177 68.2L202.037 67.76C200.771 67.4933 199.824 67.0533 199.197 66.44C198.584 65.8267 198.277 65 198.277 63.96C198.277 63.12 198.497 62.38 198.937 61.74C199.391 61.1 200.017 60.6067 200.817 60.26C201.617 59.9 202.537 59.72 203.577 59.72C204.537 59.72 205.424 59.8667 206.237 60.16C207.064 60.44 207.764 60.8533 208.337 61.4L207.657 62.98C206.524 61.98 205.157 61.48 203.557 61.48C202.571 61.48 201.784 61.7 201.197 62.14C200.624 62.58 200.337 63.1667 200.337 63.9C200.337 64.46 200.517 64.9067 200.877 65.24C201.237 65.5733 201.837 65.8267 202.677 66L204.797 66.44C206.131 66.72 207.124 67.1533 207.777 67.74C208.431 68.3133 208.757 69.0933 208.757 70.08C208.757 70.9067 208.537 71.6267 208.097 72.24C207.657 72.8533 207.037 73.3333 206.237 73.68C205.437 74.0133 204.484 74.18 203.377 74.18ZM215.4 74.18C214.174 74.18 213.26 73.8667 212.66 73.24C212.06 72.6133 211.76 71.7067 211.76 70.52V65.8H209.86V64.24H211.76V61.3H213.78V64.24H216.8V65.8H213.78V70.36C213.78 71.0667 213.927 71.6 214.22 71.96C214.527 72.32 215.02 72.5 215.7 72.5C215.914 72.5 216.12 72.48 216.32 72.44C216.52 72.3867 216.72 72.3267 216.92 72.26L217.24 73.78C217.04 73.9 216.76 73.9933 216.4 74.06C216.054 74.14 215.72 74.18 215.4 74.18ZM222.425 74.18C220.065 74.18 218.885 72.8667 218.885 70.24V64.24H220.905V70.26C220.905 71.0467 221.065 71.6267 221.385 72C221.705 72.3733 222.212 72.56 222.905 72.56C223.665 72.56 224.278 72.3067 224.745 71.8C225.225 71.2933 225.465 70.6133 225.465 69.76V64.24H227.485V74H225.525V72.44C225.205 73.0133 224.778 73.4467 224.245 73.74C223.712 74.0333 223.105 74.18 222.425 74.18ZM234.452 74.18C233.598 74.18 232.845 73.98 232.192 73.58C231.552 73.1667 231.052 72.58 230.692 71.82C230.332 71.06 230.152 70.16 230.152 69.12C230.152 68.08 230.332 67.1867 230.692 66.44C231.052 65.68 231.552 65.0933 232.192 64.68C232.832 64.2667 233.585 64.06 234.452 64.06C235.185 64.06 235.838 64.22 236.412 64.54C236.985 64.86 237.412 65.2933 237.692 65.84V59.9H239.712V74H237.732V72.3C237.452 72.8867 237.018 73.3467 236.432 73.68C235.858 74.0133 235.198 74.18 234.452 74.18ZM234.972 72.62C235.798 72.62 236.465 72.32 236.972 71.72C237.478 71.12 237.732 70.2533 237.732 69.12C237.732 67.9867 237.478 67.1267 236.972 66.54C236.465 65.94 235.798 65.64 234.972 65.64C234.132 65.64 233.458 65.94 232.952 66.54C232.445 67.1267 232.192 67.9867 232.192 69.12C232.192 70.2533 232.445 71.12 232.952 71.72C233.458 72.32 234.132 72.62 234.972 72.62ZM247.528 74.18C245.928 74.18 244.668 73.7333 243.748 72.84C242.828 71.9333 242.368 70.7 242.368 69.14C242.368 68.14 242.568 67.26 242.968 66.5C243.381 65.7267 243.948 65.1267 244.668 64.7C245.388 64.2733 246.215 64.06 247.148 64.06C248.495 64.06 249.555 64.4933 250.328 65.36C251.101 66.2133 251.488 67.3933 251.488 68.9V69.58H244.328C244.475 71.6067 245.548 72.62 247.548 72.62C248.108 72.62 248.655 72.5333 249.188 72.36C249.735 72.1867 250.248 71.9 250.728 71.5L251.328 72.9C250.888 73.3 250.321 73.6133 249.628 73.84C248.935 74.0667 248.235 74.18 247.528 74.18ZM247.228 65.48C246.388 65.48 245.721 65.74 245.228 66.26C244.735 66.78 244.435 67.4733 244.328 68.34H249.788C249.748 67.4333 249.508 66.7333 249.068 66.24C248.628 65.7333 248.015 65.48 247.228 65.48ZM254.09 74V64.24H256.05V65.86C256.384 65.2733 256.837 64.8267 257.41 64.52C257.997 64.2133 258.65 64.06 259.37 64.06C261.677 64.06 262.83 65.3667 262.83 67.98V74H260.81V68.1C260.81 67.26 260.644 66.6467 260.31 66.26C259.99 65.8733 259.484 65.68 258.79 65.68C257.977 65.68 257.324 65.94 256.83 66.46C256.35 66.9667 256.11 67.64 256.11 68.48V74H254.09ZM270.174 74.18C268.947 74.18 268.034 73.8667 267.434 73.24C266.834 72.6133 266.534 71.7067 266.534 70.52V65.8H264.634V64.24H266.534V61.3H268.554V64.24H271.574V65.8H268.554V70.36C268.554 71.0667 268.7 71.6 268.994 71.96C269.3 72.32 269.794 72.5 270.474 72.5C270.687 72.5 270.894 72.48 271.094 72.44C271.294 72.3867 271.494 72.3267 271.694 72.26L272.014 73.78C271.814 73.9 271.534 73.9933 271.174 74.06C270.827 74.14 270.494 74.18 270.174 74.18Z" fill="#545567"/>
<rect x="28" y="25" width="50" height="50" rx="8" fill="#23BDEE"/>
<g clip-path="url(#clip0_1_349)">
<path d="M46.1228 36.25C45.5803 36.25 45.1406 36.6897 45.1406 37.2322V39.1964H47.1049V37.2322C47.1049 36.6897 46.6652 36.25 46.1228 36.25Z" fill="white"/>
<path d="M59.8728 36.25C59.3303 36.25 58.8906 36.6897 58.8906 37.2322V39.1964H60.8549V37.2322C60.8549 36.6897 60.4152 36.25 59.8728 36.25Z" fill="white"/>
<path d="M63.8036 39.1965H60.8571V43.1251C60.8571 43.6676 60.4174 44.1073 59.875 44.1073C59.3325 44.1073 58.8928 43.6676 58.8928 43.1251V39.1965H47.1071V43.1251C47.1071 43.6676 46.6674 44.1073 46.125 44.1073C45.5825 44.1073 45.1428 43.6676 45.1428 43.1251V39.1965H42.1964C40.5692 39.1965 39.25 40.5157 39.25 42.143V60.8037C39.25 62.431 40.5692 63.7501 42.1964 63.7501H63.8036C65.4308 63.7501 66.75 62.431 66.75 60.8037V42.143C66.75 40.5157 65.4308 39.1965 63.8036 39.1965ZM64.7857 60.8037C64.7857 61.3461 64.346 61.7859 63.8035 61.7859H42.1964C41.654 61.7859 41.2143 61.3461 41.2143 60.8037V48.0358H64.7857V60.8037Z" fill="white"/>
<path d="M47.1105 50H45.1462C44.6038 50 44.1641 50.4397 44.1641 50.9822C44.1641 51.5246 44.6038 51.9643 45.1462 51.9643H47.1105C47.6529 51.9643 48.0927 51.5246 48.0927 50.9822C48.0927 50.4397 47.6529 50 47.1105 50Z" fill="white"/>
<path d="M53.9855 50H52.0212C51.4788 50 51.0391 50.4397 51.0391 50.9822C51.0391 51.5246 51.4788 51.9643 52.0212 51.9643H53.9855C54.5279 51.9643 54.9677 51.5246 54.9677 50.9822C54.9677 50.4397 54.5279 50 53.9855 50Z" fill="white"/>
<path d="M60.8605 50H58.8962C58.3538 50 57.9141 50.4397 57.9141 50.9822C57.9141 51.5246 58.3538 51.9643 58.8962 51.9643H60.8605C61.4029 51.9643 61.8426 51.5246 61.8426 50.9822C61.8426 50.4397 61.4029 50 60.8605 50Z" fill="white"/>
<path d="M47.1105 53.9285H45.1462C44.6038 53.9285 44.1641 54.3682 44.1641 54.9106C44.1641 55.4531 44.6038 55.8928 45.1462 55.8928H47.1105C47.6529 55.8928 48.0927 55.4531 48.0927 54.9106C48.0927 54.3682 47.6529 53.9285 47.1105 53.9285Z" fill="white"/>
<path d="M53.9855 53.9285H52.0212C51.4788 53.9285 51.0391 54.3682 51.0391 54.9106C51.0391 55.4531 51.4788 55.8928 52.0212 55.8928H53.9855C54.5279 55.8928 54.9677 55.4531 54.9677 54.9106C54.9677 54.3682 54.5279 53.9285 53.9855 53.9285Z" fill="white"/>
<path d="M60.8605 53.9285H58.8962C58.3538 53.9285 57.9141 54.3682 57.9141 54.9106C57.9141 55.4531 58.3538 55.8928 58.8962 55.8928H60.8605C61.4029 55.8928 61.8426 55.4531 61.8426 54.9106C61.8426 54.3682 61.4029 53.9285 60.8605 53.9285Z" fill="white"/>
<path d="M47.1105 57.8572H45.1462C44.6038 57.8572 44.1641 58.2969 44.1641 58.8393C44.1641 59.3818 44.6038 59.8214 45.1462 59.8214H47.1105C47.6529 59.8214 48.0927 59.3817 48.0927 58.8393C48.0927 58.2968 47.6529 57.8572 47.1105 57.8572Z" fill="white"/>
<path d="M53.9855 57.8572H52.0212C51.4788 57.8572 51.0391 58.2969 51.0391 58.8393C51.0391 59.3818 51.4788 59.8215 52.0212 59.8215H53.9855C54.5279 59.8215 54.9677 59.3818 54.9677 58.8393C54.9677 58.2969 54.5279 57.8572 53.9855 57.8572Z" fill="white"/>
<path d="M60.8605 57.8572H58.8962C58.3538 57.8572 57.9141 58.2969 57.9141 58.8393C57.9141 59.3818 58.3538 59.8215 58.8962 59.8215H60.8605C61.4029 59.8215 61.8426 59.3818 61.8426 58.8393C61.8426 58.2969 61.4029 57.8572 60.8605 57.8572Z" fill="white"/>
</g>
<defs>
<filter id="filter0_b_1_349" x="-20" y="-20" width="340" height="140" filterUnits="userSpaceOnUse" color-interpolation-filters="sRGB">
<feFlood flood-opacity="0" result="BackgroundImageFix"/>
<feGaussianBlur in="BackgroundImageFix" stdDeviation="10"/>
<feComposite in2="SourceAlpha" operator="in" result="effect1_backgroundBlur_1_349"/>
<feBlend mode="normal" in="SourceGraphic" in2="effect1_backgroundBlur_1_349" result="shape"/>
</filter>
<clipPath id="clip0_1_349">
<rect width="27.5" height="27.5" fill="white" transform="translate(39.25 36.25)"/>
</clipPath>
</defs>
</svg>
