<svg width="24" height="25" viewBox="0 0 24 25" fill="none" xmlns="http://www.w3.org/2000/svg">
<path opacity="0.4" d="M14.4183 6.17714C13.9422 6.0892 13.505 6.39299 13.4144 6.85767C13.3238 7.32235 13.6285 7.77604 14.0916 7.86698C15.4859 8.13879 16.5624 9.21805 16.8353 10.6171V10.6181C16.913 11.0208 17.2675 11.3136 17.6759 11.3136C17.7306 11.3136 17.7854 11.3086 17.8412 11.2986C18.3043 11.2057 18.609 10.753 18.5184 10.2873C18.1111 8.19775 16.5027 6.58386 14.4183 6.17714Z" fill="#0B7077"/>
<path opacity="0.4" d="M14.3558 2.69519C14.1328 2.66321 13.9087 2.72916 13.7304 2.87106C13.5472 3.01497 13.4326 3.22282 13.4078 3.45566C13.355 3.92634 13.6946 4.35205 14.1646 4.40501C17.4063 4.76676 19.9259 7.29203 20.2904 10.5438C20.3392 10.9795 20.7047 11.3083 21.1409 11.3083C21.1738 11.3083 21.2057 11.3063 21.2385 11.3023C21.4666 11.2773 21.6698 11.1644 21.8132 10.9845C21.9556 10.8046 22.0203 10.5808 21.9944 10.3519C21.5403 6.29471 18.4002 3.14588 14.3558 2.69519Z" fill="#0B7077"/>
<path fill-rule="evenodd" clip-rule="evenodd" d="M11.0317 13.6596C15.0208 17.6476 15.9258 13.034 18.4656 15.5721C20.9143 18.02 22.3216 18.5105 19.2192 21.612C18.8306 21.9243 16.3616 25.6815 7.6846 17.0069C-0.993478 8.33126 2.76158 5.8597 3.07397 5.47121C6.18387 2.3611 6.66586 3.77664 9.11449 6.22458C11.6544 8.76375 7.04266 9.67167 11.0317 13.6596Z" fill="#0B7077"/>
</svg>
