<svg width="24" height="25" viewBox="0 0 24 25" fill="none" xmlns="http://www.w3.org/2000/svg">
<path opacity="0.4" d="M22 12.6873C22 18.2113 17.523 22.6873 12 22.6873C6.477 22.6873 2 18.2113 2 12.6873C2 7.16526 6.477 2.68726 12 2.68726C17.523 2.68726 22 7.16526 22 12.6873Z" fill="#0B7077"/>
<path d="M15.5739 16.5018C15.4429 16.5018 15.3109 16.4678 15.1899 16.3968L11.2639 14.0548C11.0379 13.9188 10.8989 13.6738 10.8989 13.4098V8.36279C10.8989 7.94879 11.2349 7.61279 11.6489 7.61279C12.0629 7.61279 12.3989 7.94879 12.3989 8.36279V12.9838L15.9589 15.1068C16.3139 15.3198 16.4309 15.7798 16.2189 16.1358C16.0779 16.3708 15.8289 16.5018 15.5739 16.5018Z" fill="#0B7077"/>
</svg>
